<?xml version="1.0" encoding="utf-8"?>
<!-- Generator: Adobe Illustrator 17.0.0, SVG Export Plug-In . SVG Version: 6.00 Build 0)  -->
<!DOCTYPE svg PUBLIC "-//W3C//DTD SVG 1.1//EN" "http://www.w3.org/Graphics/SVG/1.1/DTD/svg11.dtd">
<svg version="1.1" id="Layer_1" xmlns="http://www.w3.org/2000/svg" xmlns:xlink="http://www.w3.org/1999/xlink" x="0px" y="0px"
	 width="339.5px" height="96.75px" viewBox="110 6 339.5 96.75" enable-background="new 110 6 339.5 96.75" xml:space="preserve">
<rect x="110" y="6" fill="#FFFFFF" width="339.5" height="96.75"/>
<path fill="#630000" d="M271.853,89.001c0.58-0.084,1.102-0.16,1.624-0.235c0.202-0.029,0.422-0.012,0.604-0.089
	c0.474-0.198,1.197-0.257,1.114-0.954c-0.089-0.754-0.808-0.487-1.256-0.459c-0.723,0.045-1.438,0.226-2.248,0.365
	c0-1.076-0.192-2.236,0.07-3.283c0.166-0.66,0.94-1.249,1.565-1.696c1.233-0.882,2.59-0.975,3.971-0.265
	c0.749,0.385,1.497,0.78,2.274,1.099c0.219,0.089,0.735-0.009,0.775-0.133c0.084-0.257,0.033-0.658-0.131-0.871
	c-0.202-0.263-0.604-0.362-0.865-0.593c-0.285-0.251-0.721-0.587-0.701-0.857c0.023-0.303,0.431-0.69,0.762-0.834
	c0.84-0.363,1.549,0.082,2.151,0.618c0.549,0.49,0.758,1.136,0.515,1.875c-0.053,0.162-0.111,0.322-0.24,0.695
	c0.524-0.367,0.9-0.592,1.232-0.868c0.927-0.77,1.913-0.754,2.919-0.224c0.494,0.26,0.96,0.581,1.406,0.918
	c0.47,0.355,0.693,0.825,0.681,1.455c-0.034,1.994-0.021,3.989-0.008,5.984c0.004,0.67-0.217,1.171-0.82,1.52
	c-0.628,0.364-1.24,0.134-1.62-0.248c-0.631-0.633-1.12-1.418-1.597-2.184c-0.08-0.129,0.142-0.594,0.339-0.714
	c0.406-0.248,0.896-0.353,1.341-0.543c0.419-0.179,0.872-0.33,1.223-0.604c0.708-0.552,0.74-1.314,0.172-2.102
	c-0.962-1.336-2.854-2.046-4.467-1.641c-0.983,0.247-1.946,0.581-2.932,0.812c-1.129,0.263-2.227,0.054-3.302-0.347
	c-1.02-0.38-2.062-0.649-3.119-0.133c-0.25,0.122-0.457,0.333-0.658,0.6c1.366-0.23,2.657-0.222,3.388,1.108
	c0.746,1.357-0.05,2.316-1.105,3.083c0.702,1.072,1.319,1.004,3.191-0.328c0.574,0.621,1.155,1.342,2.154,0.658
	c0.727-0.497,0.959-1,0.812-1.712c-0.631,0.164-1.257,0.431-1.896,0.467c-0.822,0.046-1.408-0.513-1.455-1.175
	c-0.047-0.665,0.443-1.305,1.236-1.432c1.626-0.257,3.298,0.378,3.2,2.541c-0.054,1.189-0.369,2.315-1.204,3.23
	c-0.836,0.917-1.651,1.049-2.724,0.435c-0.221-0.127-0.473-0.234-0.643-0.413c-0.4-0.426-0.695-0.298-1.095,0.035
	c-0.804,0.67-1.729,1.073-2.732,0.465C272.652,91.359,271.837,90.457,271.853,89.001z M287.531,88.639
	c-0.121-0.048-0.243-0.095-0.364-0.143c-0.113,0.257-0.243,0.51-0.32,0.778c-0.01,0.033,0.262,0.147,0.403,0.223
	C287.345,89.211,287.438,88.925,287.531,88.639z M371.841,83.95c0.775,0.013,1.578,0.14,2.311,0.389
	c1.341,0.454,2.609,0.598,3.902-0.142c0.803-0.459,1.702-0.604,2.589-0.261c1.299,0.502,2.653,0.932,3.838,1.639
	c1.189,0.709,0.974,2.034-0.291,2.639c-0.252,0.121-0.528,0.189-0.79,0.288c-0.429,0.162-0.89,0.276-1.269,0.516
	c-0.201,0.127-0.435,0.588-0.357,0.709c0.497,0.782,1.004,1.583,1.656,2.232c0.385,0.384,1.018,0.573,1.624,0.185
	c0.553-0.353,0.773-0.835,0.767-1.477c-0.016-1.457-0.005-2.915-0.005-4.372c0-2.718,0-2.718-2.508-3.806
	c-0.023-0.01-0.043-0.027-0.067-0.038c-1.324-0.607-2.63-0.757-3.895,0.152c-0.908,0.652-1.788,0.586-2.795,0.112
	c-0.882-0.414-1.895-0.816-2.833-0.78c-1.53,0.058-2.881,0.805-3.954,1.952c-0.135,0.144-0.313,0.33-0.317,0.502
	c-0.029,1.087-0.015,2.175-0.015,3.198c0.959-0.122,1.829-0.263,2.704-0.326c0.258-0.018,0.532,0.185,0.799,0.287
	c-0.162,0.262-0.268,0.61-0.501,0.766c-0.327,0.219-0.741,0.335-1.134,0.423c-0.54,0.12-1.096,0.171-1.819,0.278
	c0.22,0.536,0.367,1.006,0.596,1.433c0.841,1.567,3.681,2.046,5.38,1.835c1.234-0.153,2.363-0.548,3.381-1.364
	c-0.105,0.404-0.333,0.698-0.508,1.02c-0.114,0.209-0.259,0.499-0.193,0.681c0.061,0.166,0.376,0.295,0.599,0.333
	c0.708,0.12,1.135-0.309,1.138-0.93c0.009-1.833-0.061-3.668-0.143-5.5c-0.026-0.572-0.325-1.045-0.976-1.087
	c-0.777-0.05-1.586-0.062-1.975,0.799c-0.121,0.267-0.147,0.654-0.052,0.929c0.296,0.866,0.812,1.05,2.062,0.837
	c0.12,0.929-0.599,1.864-1.755,1.985c-1.098,0.115-2.223,0.04-3.329-0.044c-0.369-0.029-0.716-0.346-1.195-0.594
	c1.196-0.859,1.956-1.751,1.293-3.085c-0.755-1.519-2.139-1.365-3.557-1.191C370.568,84.334,371.146,83.939,371.841,83.95z
	 M315.451,85.763c0.139,0.207,0.119,0.649-0.011,0.881c-0.347,0.622-0.798,1.183-1.197,1.776c-0.807,1.2-0.766,1.567,0.276,2.581
	c0.091,0.089,0.192,0.169,0.293,0.248c1.647,1.278,3.533,1.355,5.384,0.779c2.467-0.768,3.28-2.529,2.895-4.863
	c-0.127-0.768-0.558-1.496-1.372-1.715c-0.749-0.201-1.549-0.212-2.375-0.313c-0.002,0.03-0.022-0.103,0.025-0.207
	c0.298-0.659,0.815-0.777,1.841-0.432c0.998,0.335,1.254,0.227,1.641-0.721c0.103-0.253,0.171-0.52,0.261-0.799
	c-0.439-0.182-0.843-0.329-1.228-0.515c-1.395-0.674-1.658-0.649-2.74,0.498c-0.243,0.257-0.462,0.649-0.479,0.99
	c-0.057,1.207-0.022,2.419-0.022,3.688c0.665-0.088,1.168-0.141,1.668-0.224c0.725-0.121,1.751,0.288,1.928,0.786
	c0.192,0.543-0.284,1.288-1.106,1.608c-0.467,0.182-0.975,0.311-1.474,0.352c-1.031,0.086-2.053,0.004-2.927-0.64
	c-0.883-0.652-1.004-1.294-0.458-2.221c0.363-0.615,0.786-1.202,1.077-1.849c0.144-0.321,0.196-0.822,0.043-1.114
	c-1.182-2.262-4.27-3.103-6.43-1.938c-1.592,0.859-2.265,2.818-1.843,5.006c1.551-0.321,1.801-0.244,1.999,0.617
	c-1.651,0.983-1.807,1.153-2.006,2.184c-0.21,1.092,0.474,1.977,1.653,2.137c1.018,0.138,2.039-0.583,2.074-1.569
	c0.014-0.408-0.139-0.958-0.424-1.208c-0.394-0.348-0.845-0.076-1.175,0.335c-0.096,0.12-0.338,0.122-0.513,0.179
	c0.039-0.198,0.011-0.458,0.127-0.584c0.361-0.394,0.809-0.708,1.165-1.106c0.909-1.015,0.473-2.779-0.78-3.154
	c-0.349-0.104-0.736-0.084-1.232-0.134C311.896,83.286,314.102,83.756,315.451,85.763z M391.808,83.993
	c1.187,0.207,1.997,0.988,2.586,1.989c0.089,0.152-0.027,0.493-0.146,0.686c-0.348,0.564-0.758,1.09-1.121,1.645
	c-0.892,1.365-0.796,1.92,0.52,2.947c0.298,0.233,0.635,0.433,0.979,0.591c1.361,0.627,2.795,0.631,4.189,0.238
	c2.56-0.724,3.531-2.563,3.062-5.027c-0.145-0.763-0.617-1.463-1.444-1.653c-0.734-0.169-1.506-0.17-2.257-0.244
	c0.123-0.773,0.599-1.05,1.497-0.768c1.509,0.473,1.603,0.427,2.157-1.066c0.042-0.112,0.049-0.237,0.071-0.348
	c-0.549-0.239-1.087-0.419-1.565-0.698c-0.581-0.339-1.113-0.512-1.638,0.05c-0.41,0.438-1.087,0.854-1.15,1.343
	c-0.164,1.274-0.055,2.583-0.055,3.829c0.88,0,1.692-0.087,2.471,0.036c0.403,0.064,1.049,0.496,1.051,0.768
	c0.004,0.443-0.322,1.056-0.701,1.296c-0.532,0.337-1.23,0.485-1.874,0.556c-0.999,0.109-2.001-0.001-2.859-0.61
	c-0.918-0.651-1.046-1.319-0.48-2.277c0.337-0.572,0.639-1.169,1.024-1.706c0.334-0.465,0.316-0.863,0.057-1.342
	c-1.061-1.97-4.125-2.945-6.166-1.943c-1.76,0.865-2.648,3.094-2.061,5.081c0.488-0.03,0.968-0.121,1.431-0.062
	c0.208,0.026,0.38,0.348,0.567,0.535c-0.147,0.144-0.268,0.344-0.444,0.421c-0.854,0.378-1.403,0.966-1.576,1.918
	c-0.197,1.086,0.44,1.98,1.612,2.167c1.05,0.167,2.09-0.576,2.107-1.609c0.007-0.403-0.175-0.934-0.464-1.183
	c-0.368-0.318-0.795-0.045-1.115,0.33c-0.107,0.124-0.373,0.111-0.566,0.161c0.048-0.181,0.043-0.414,0.157-0.535
	c0.385-0.408,0.849-0.744,1.214-1.166c0.882-1.02,0.372-2.804-0.883-3.123c-0.329-0.084-0.683-0.066-1.192-0.109
	C389.742,84.218,390.685,83.797,391.808,83.993z M217.487,85.474c-0.708-0.143-1.21-0.244-1.731-0.349
	c-0.342-1.082-0.218-1.472,0.686-2.084c0.063-0.043,0.133-0.08,0.189-0.132c1.168-1.087,2.333-1.214,3.684-0.224
	c1.004,0.735,1.181,0.653,2.148-0.162c0.728-0.613,1.433-0.74,2.294-0.24c0.58,0.336,1.25,0.518,1.884,0.77
	c-0.363,1.515-1.186,1.974-2.598,1.433c-0.095-0.037-0.198-0.058-0.289-0.103c-1.868-0.905-1.471-0.742-3.276,0.509
	c0.809,0.09,1.503,0.17,2.198,0.244c0.963,0.103,1.934,0.166,2.886,0.328c0.222,0.038,0.549,0.4,0.555,0.622
	c0.048,1.61,0.045,3.223,0.018,4.833c-0.014,0.831-1.071,1.533-1.862,1.306c-1.251-0.359-1.815-1.336-2.19-2.457
	c-0.044-0.131,0.198-0.465,0.379-0.546c0.863-0.389,1.751-0.725,2.63-1.08c-0.019-0.086-0.037-0.173-0.056-0.259
	c-0.431-0.084-0.859-0.214-1.294-0.246c-1.745-0.129-3.496-0.649-5.236-0.105c-0.682,0.213-1.345,0.588-1.909,1.027
	c-0.203,0.157-0.219,0.769-0.095,1.084c0.221,0.56,0.831,0.539,1.15,0.017c0.558-0.91,1.303-1.582,2.423-1.398
	c0.458,0.075,1.01,0.444,1.228,0.84c0.164,0.298-0.06,0.894-0.271,1.268c-0.068,0.12-0.646-0.034-0.987-0.087
	c-0.372-0.057-0.74-0.142-1.11-0.215c-0.016,0.37-0.03,0.74-0.049,1.109c-0.011,0.205,0.036,0.538-0.062,0.591
	c-0.43,0.232-0.91,0.546-1.362,0.531c-0.986-0.033-1.527-0.553-1.66-1.58c-0.137-1.057-0.257-2.153-0.112-3.195
	c0.079-0.567,0.713-1.063,1.119-1.572C216.926,85.804,217.123,85.724,217.487,85.474z M216.862,83.819
	c0.558,0.483,0.928,0.861,1.355,1.156c0.505,0.349,1.023,0.178,1.531-0.136C218.821,84.533,218.154,83.525,216.862,83.819z
	 M225.634,88.628c-0.121-0.058-0.244-0.116-0.365-0.175c-0.144,0.272-0.288,0.544-0.432,0.816c0.146,0.075,0.291,0.15,0.437,0.225
	C225.394,89.206,225.514,88.917,225.634,88.628z M256.151,87.899c-0.561-0.103-0.972-0.212-1.388-0.251
	c-2.066-0.196-4.149-0.74-6.181,0.153c-0.386,0.17-0.75,0.441-1.05,0.741c-0.399,0.4-0.281,1.094,0.18,1.392
	c0.526,0.339,0.736,0.011,0.995-0.41c0.526-0.855,1.288-1.45,2.34-1.268c0.443,0.077,0.909,0.421,1.219,0.772
	c0.415,0.47,0.13,1.027-0.265,1.337c-0.191,0.151-0.662-0.041-1.003-0.093c-0.372-0.057-0.741-0.133-1.112-0.2
	c-0.011,0.371-0.016,0.742-0.035,1.113c-0.011,0.205,0.025,0.536-0.077,0.59c-0.431,0.229-0.918,0.547-1.364,0.518
	c-1.133-0.072-1.67-0.759-1.795-2.187c-0.073-0.837-0.166-1.723,0.03-2.518c0.149-0.607,0.727-1.114,1.138-1.647
	c0.113-0.146,0.315-0.223,0.674-0.466c-0.727-0.148-1.253-0.256-1.804-0.369c-0.176-0.904-0.148-1.721,0.872-2.152
	c0.046-0.02,0.086-0.056,0.124-0.09c1.155-1.068,2.303-1.146,3.62-0.187c1.009,0.735,1.192,0.655,2.149-0.151
	c0.726-0.611,1.431-0.746,2.292-0.253c0.583,0.335,1.25,0.525,1.884,0.781c-0.334,1.492-1.181,1.968-2.586,1.426
	c-0.143-0.055-0.307-0.082-0.426-0.17c-1.173-0.865-2.114-0.385-3.085,0.591c0.801,0.084,1.523,0.157,2.244,0.234
	c0.938,0.099,1.881,0.169,2.81,0.324c0.21,0.035,0.523,0.367,0.528,0.569c0.043,1.661,0.054,3.324,0.011,4.986
	c-0.021,0.777-1.121,1.423-1.877,1.199c-1.245-0.368-1.808-1.345-2.171-2.471c-0.04-0.125,0.22-0.442,0.407-0.531
	c0.71-0.338,1.451-0.613,2.173-0.927C255.772,88.224,255.891,88.094,256.151,87.899z M247.995,83.779
	c-0.019,0.07-0.037,0.139-0.056,0.208c0.348,0.243,0.78,0.421,1.026,0.741c0.549,0.717,1.113,0.353,1.71,0.145
	C249.771,84.511,249.106,83.51,247.995,83.779z M256.593,88.62c-0.123-0.057-0.246-0.114-0.368-0.171
	c-0.141,0.276-0.282,0.551-0.422,0.827c0.147,0.072,0.294,0.144,0.441,0.216C256.36,89.201,256.477,88.91,256.593,88.62z
	 M361.52,83.067c-0.565,1.667-1.233,1.989-2.811,1.356c-0.048-0.019-0.102-0.03-0.141-0.059c-1.195-0.888-2.198-0.492-3.189,0.539
	c0.754,0.082,1.452,0.159,2.15,0.233c0.963,0.102,1.932,0.166,2.885,0.328c0.221,0.038,0.544,0.402,0.55,0.623
	c0.048,1.609,0.045,3.22,0.018,4.83c-0.014,0.835-1.065,1.537-1.857,1.307c-1.246-0.361-1.819-1.33-2.187-2.455
	c-0.043-0.134,0.193-0.466,0.371-0.545c0.865-0.389,1.756-0.722,2.636-1.076c-0.016-0.091-0.031-0.181-0.048-0.272
	c-0.402-0.074-0.8-0.179-1.205-0.216c-1.793-0.164-3.592-0.673-5.382-0.124c-0.681,0.209-1.339,0.599-1.903,1.041
	c-0.462,0.361-0.288,0.901,0.107,1.269c0.335,0.312,0.683,0.403,0.977-0.139c0.539-0.995,1.343-1.607,2.543-1.469
	c1.008,0.116,1.534,1.034,1.099,1.867c-0.252,0.481-0.603,0.593-1.068,0.292c-0.171-0.111-0.33-0.276-0.516-0.315
	c-0.25-0.052-0.636-0.11-0.755,0.022c-0.166,0.184-0.237,0.567-0.174,0.82c0.206,0.831-0.136,1.345-1.03,1.421
	c-0.904,0.077-1.784-0.51-1.902-1.428c-0.142-1.107-0.272-2.248-0.147-3.345c0.065-0.567,0.68-1.078,1.074-1.593
	c0.116-0.151,0.326-0.229,0.716-0.489c-0.718-0.156-1.233-0.267-1.75-0.379c-0.272-1.274-0.212-1.432,0.818-2.145
	c0.021-0.015,0.043-0.027,0.062-0.044c1.189-1.101,2.371-1.249,3.746-0.216c0.945,0.711,1.159,0.622,2.082-0.165
	c0.75-0.64,1.478-0.754,2.358-0.243C360.206,82.625,360.852,82.8,361.52,83.067z M354.688,84.972
	c-1.475-1.145-2.326-1.423-2.862-0.984c0.331,0.227,0.754,0.387,0.971,0.692C353.322,85.42,353.928,85.108,354.688,84.972z
	 M360.458,88.591c-0.116-0.05-0.233-0.1-0.348-0.149c-0.142,0.276-0.284,0.552-0.426,0.828c0.166,0.07,0.331,0.139,0.498,0.208
	C360.273,89.183,360.365,88.887,360.458,88.591z M301.134,83.054c-0.554,1.45-1.178,1.775-2.565,1.359
	c-0.122-0.037-0.244-0.08-0.357-0.139c-1.009-0.539-1.949-0.63-2.822,0.299c-0.544,0.579-1.157,0.349-1.738,0.008
	c-0.44-0.257-0.86-0.561-1.324-0.761c-0.253-0.109-0.58-0.046-0.872-0.061c-0.008,0.075-0.016,0.151-0.025,0.226
	c0.339,0.189,0.679,0.38,1.039,0.581c-0.106,0.271-0.187,0.478-0.268,0.686c0.626,0.257,1.246,0.51,1.934,0.791
	c0.098-0.065,0.287-0.153,0.429-0.29c1.207-1.177,2.63-1.198,4.134-0.785c1.91,0.524,1.909,0.526,1.909,2.544
	c0,1.048,0.004,2.096-0.002,3.144c-0.007,1.169-1.052,1.903-2.129,1.483c-1.099-0.429-1.612-1.364-1.943-2.409
	c-0.039-0.121,0.234-0.434,0.425-0.519c0.868-0.389,1.758-0.729,2.613-1.209c-1.601-0.799-3.189-1.351-4.901-0.586
	c-0.207,0.093-0.394,0.459-0.411,0.711c-0.053,0.763-0.019,1.533-0.02,2.299c-0.002,1.481-0.942,2.215-2.395,1.871
	c-1.41-0.333-1.939-1.253-1.707-2.712c0.962-0.108,1.883-0.147,2.767-0.348c0.305-0.07,0.518-0.544,0.803-0.866
	c-0.827,0-1.518,0.038-2.203-0.01c-0.758-0.053-1.217-0.488-1.294-1.265c-0.076-0.761,0.242-1.278,0.977-1.532
	c0.115-0.039,0.215-0.124,0.542-0.317c-0.633-0.165-1.073-0.279-1.56-0.405c-0.209-0.715-0.029-1.233,0.636-1.782
	c1.399-1.154,2.722-1.482,4.216-0.222c0.581,0.49,1.205,0.378,1.715-0.153c0.845-0.876,1.733-0.886,2.746-0.293
	C299.974,82.68,300.548,82.825,301.134,83.054z M300.094,88.636c-0.122-0.058-0.244-0.116-0.366-0.175
	c-0.143,0.27-0.287,0.539-0.431,0.809c0.145,0.075,0.289,0.152,0.435,0.227C299.853,89.21,299.974,88.923,300.094,88.636z
	 M330.924,88.797c1.197-0.321,2.404-0.662,3.536-1.158c1.021-0.448,1.476-1.406,1.426-2.514c-0.049-1.082-0.488-2.04-1.537-2.461
	c-0.887-0.355-1.843-0.613-2.791-0.722c-1.668-0.191-3.314-0.012-4.828,0.816c-0.942,0.515-1.252,1.419-1.25,2.386
	c0.002,0.845,0.471,1.572,1.319,1.785c0.853,0.214,1.761,0.323,2.639,0.292c0.626-0.022,1.287-0.366,1.363-1.12
	c0.075-0.745-0.487-1.041-1.118-1.243c-1.161-0.373-2.008,0.052-2.647,1.037c-0.43-0.723-0.263-1.358,0.481-1.615
	c1.487-0.515,3.016-0.547,4.508-0.046c0.39,0.131,0.813,0.492,0.991,0.859c0.47,0.965-0.115,2.031-1.402,2.302
	c-1.786,0.376-3.613,0.558-5.425,0.808c-0.328,0.045-0.686-0.046-0.646,0.495c0.08,1.071,0.448,1.98,1.349,2.623
	c1.756,1.253,5.314,1.368,7.171,0.23c1.133-0.694,1.948-2.314,1.671-3.462c-0.882,1.147-1.972,1.976-3.362,2.139
	c-1.332,0.157-2.745,0.285-3.905-1.075C329.426,89.021,330.197,88.992,330.924,88.797z M339.806,84.714
	c1.588-0.827,3.295-0.918,5.004-0.641c0.779,0.126,1.528,0.521,2.247,0.881c0.194,0.098,0.276,0.508,0.312,0.786
	c0.012,0.098-0.29,0.353-0.408,0.329c-0.269-0.055-0.631-0.171-0.745-0.379c-0.429-0.786-1.106-0.661-1.743-0.513
	c-0.675,0.157-0.757,0.749-0.753,1.345c0.005,0.762,0.498,1.083,1.142,1.224c0.32,0.07,0.662,0.041,0.994,0.051
	c1.091,0.033,1.851-0.476,2.321-1.442c0.487-1.001,0.293-1.934-0.468-2.669c-0.556-0.536-1.22-1.013-1.92-1.337
	c-1.346-0.625-2.775-0.516-4.205-0.248c-2.74,0.512-4.251,2.881-3.522,5.57c2.216-0.444,2.799-0.358,3.087,0.503
	c-0.442,0.023-0.872,0.021-1.297,0.071c-1.314,0.156-2.07,0.973-1.619,1.893c0.345,0.704,0.879,1.411,1.511,1.857
	c1.108,0.781,2.337,0.024,2.343-1.33c0.002-0.483,0-0.966,0-1.449c0.139-0.031,0.276-0.062,0.414-0.093
	c0.18,0.4,0.417,0.785,0.528,1.203c0.234,0.886,0.592,1.583,1.575,1.87c1.251,0.367,2.152-0.127,2.9-1.027
	c0.697-0.839,0.795-1.87,0.898-2.982c-0.489,0.561-0.828,1.09-1.294,1.459c-1.181,0.936-2.447,0.69-3.322-0.507
	c-0.244-0.335-0.617-0.69-0.995-0.787c-0.617-0.157-0.731-0.464-0.717-1.029c0.032-1.273-0.134-1.493-1.372-1.948
	c-0.397-0.146-0.829-0.195-1.392-0.321C339.532,84.901,339.66,84.791,339.806,84.714z M206.267,89.726
	c-1.132,0.844-2.385,0.558-3.205-0.573c-0.244-0.335-0.615-0.707-0.989-0.792c-0.727-0.166-0.747-0.596-0.731-1.174
	c0.029-1.037-0.229-1.409-1.211-1.761c-0.474-0.171-0.978-0.257-1.557-0.403c0.212-0.137,0.33-0.232,0.464-0.297
	c1.983-0.97,4.044-0.983,6.12-0.41c0.491,0.135,0.952,0.486,1.339,0.836c0.142,0.129,0.029,0.539,0.032,0.821
	c-0.308-0.019-0.622-0.007-0.918-0.075c-0.101-0.023-0.128-0.325-0.237-0.362c-0.477-0.166-0.986-0.418-1.455-0.37
	c-0.321,0.033-0.8,0.483-0.842,0.795c-0.062,0.468,0.041,1.144,0.351,1.442c0.846,0.813,2.968,0.454,3.668-0.502
	c0.95-1.3,0.781-2.606-0.573-3.691c-2.123-1.699-4.492-1.679-6.853-0.666c-2.287,0.982-3.122,3.014-2.312,5.132
	c1.051-0.084,2.166-0.719,3.062,0.406c-0.276,0.13-0.553,0.08-0.807,0.139c-0.563,0.131-1.128,0.276-1.663,0.49
	c-0.557,0.223-0.821,0.726-0.505,1.242c0.453,0.741,0.923,1.567,1.601,2.054c1.093,0.782,2.298-0.012,2.303-1.383
	c0.002-0.468,0-0.936,0-1.462c0.813,0.174,0.891,0.685,0.962,1.194c0.228,1.641,1.847,2.283,3.088,1.819
	c1.676-0.626,2.157-2.187,2.23-3.912C207.155,88.783,206.778,89.345,206.267,89.726z M180.519,84.476
	c0.528,0.22,1.044,0.419,1.424-0.173c0.25-0.39,0.4-0.845,0.604-1.292c-0.613-0.264-1.109-0.458-1.589-0.689
	c-1.078-0.518-2.754,0.189-2.897,1.39c-0.156,1.299-0.035,2.631-0.035,3.82c0.953,0,1.831-0.066,2.69,0.034
	c0.316,0.037,0.813,0.455,0.826,0.717c0.019,0.417-0.226,0.909-0.501,1.258c-0.196,0.248-0.619,0.43-0.949,0.441
	c-1.212,0.044-2.429,0.046-3.638-0.027c-0.376-0.023-0.736-0.335-1.196-0.562c0.938-0.858,1.896-1.556,1.331-2.873
	c-0.758-1.768-2.289-1.286-3.68-1.183c0.222-0.941,0.849-1.318,1.7-1.067c0.293,0.086,0.588,0.265,0.874,0.25
	c0.361-0.018,0.804-0.094,1.048-0.321c0.331-0.31,0.507-0.786,0.764-1.217c-0.681-0.256-1.241-0.499-1.82-0.674
	c-0.432-0.13-0.964-0.362-1.323-0.221c-0.849,0.335-1.811,0.806-1.94,1.797c-0.162,1.243-0.039,2.525-0.039,3.841
	c0.177-0.041,0.271-0.069,0.366-0.084c0.754-0.117,1.506-0.285,2.265-0.32c0.282-0.013,0.578,0.288,0.868,0.445
	c-0.199,0.238-0.355,0.555-0.608,0.695c-0.324,0.177-0.722,0.23-1.096,0.299c-0.54,0.1-1.087,0.166-1.665,0.251
	c0.043,0.98,0.478,1.703,1.183,2.198c1.875,1.316,3.944,1.377,6.074,0.763c1.193-0.344,2.056-1.128,2.64-2.198
	c1-1.832,0.232-4.078-1.573-4.514c-0.589-0.143-1.241-0.022-1.911-0.022C178.988,84.292,179.512,84.056,180.519,84.476z
	 M230.823,84.336c0.535,0.176,1.126,0.573,1.629,0.022c0.358-0.392,0.588-0.902,0.891-1.383c-0.669-0.244-1.21-0.403-1.715-0.636
	c-0.634-0.294-1.246-0.662-1.887-0.056c-0.509,0.482-1.329,0.931-1.424,1.493c-0.216,1.269-0.068,2.601-0.068,3.918
	c0.69-0.129,1.308-0.289,1.936-0.348c0.547-0.051,1.378-0.321,1.477,0.458c0.088,0.699-0.76,0.786-1.307,0.913
	c-0.635,0.148-1.296,0.184-2.007,0.276c0.03,0.989,0.474,1.714,1.197,2.234c1.567,1.128,3.341,1.275,5.187,0.955
	c1.965-0.34,3.342-1.395,3.84-3.364c0.429-1.691-0.558-3.865-2.914-3.638c-0.289,0.028-0.572,0.106-0.887,0.166
	c0.181-1.02,0.749-1.292,1.762-0.882c0.517,0.21,1.038,0.453,1.431-0.141c0.257-0.389,0.415-0.843,0.628-1.291
	c-0.808-0.367-1.491-0.706-2.198-0.982c-0.202-0.079-0.514-0.047-0.708,0.058c-1.069,0.579-1.833,1.326-1.673,2.72
	c0.108,0.941,0.021,1.906,0.021,2.711c1.027,0,1.905-0.059,2.767,0.033c0.297,0.032,0.758,0.423,0.781,0.681
	c0.034,0.4-0.157,0.895-0.415,1.222c-0.212,0.269-0.654,0.482-1.004,0.496c-1.236,0.05-2.477,0.046-3.711-0.03
	c-0.366-0.022-0.713-0.347-1.111-0.556c1.514-1.491,1.711-1.91,1.268-2.904c-0.763-1.712-2.255-1.276-3.63-1.128
	C229.113,84.35,229.802,84,230.823,84.336z M259.532,87.643c0.805-0.116,1.608-0.27,2.417-0.319
	c0.232-0.014,0.483,0.279,0.725,0.431c-0.172,0.23-0.298,0.548-0.526,0.668c-0.35,0.185-0.768,0.255-1.165,0.332
	c-0.541,0.104-1.09,0.169-1.674,0.256c0.025,0.976,0.461,1.709,1.17,2.189c2.147,1.451,4.471,1.515,6.771,0.478
	c1.492-0.672,2.22-1.991,2.342-3.865c-1.007,1.192-1.927,2.129-3.41,2.277c-1.36,0.137-2.631,0.099-3.901-0.72
	c0.972-0.866,1.891-1.606,1.267-2.991c-0.608-1.351-1.892-1.097-3.105-1.294c0.208-0.159,0.297-0.248,0.403-0.303
	c1.651-0.88,3.427-1.007,5.216-0.695c0.776,0.135,1.526,0.529,2.223,0.921c0.178,0.1,0.265,0.804,0.118,0.945
	c-0.326,0.315-0.788,0.202-1.009-0.249c-0.395-0.808-1.089-0.672-1.725-0.53c-0.675,0.152-0.764,0.743-0.76,1.339
	c0.005,0.756,0.488,1.089,1.135,1.231c0.32,0.07,0.662,0.042,0.993,0.052c1.091,0.035,1.855-0.467,2.326-1.433
	c0.486-0.996,0.307-1.934-0.457-2.672c-0.556-0.536-1.216-1.023-1.917-1.338c-1.186-0.532-2.447-0.543-3.747-0.328
	c-1.522,0.252-2.708,0.994-3.707,2.104c-0.165,0.183-0.351,0.431-0.36,0.656c-0.039,0.961-0.017,1.925-0.017,2.931
	C259.339,87.681,259.435,87.657,259.532,87.643z M190.386,83.224c0.14-0.098,0.219-0.128,0.263-0.185
	c0.884-1.151,1.561-1.222,2.591-0.831c1.347,0.512,1.939,1.387,1.939,2.706c0.001,1.842-0.008,3.683,0.003,5.525
	c0.005,0.786-0.257,1.414-0.986,1.758c-0.709,0.335-1.355-0.007-1.811-0.461c-0.508-0.508-0.868-1.177-1.238-1.807
	c-0.257-0.439-0.057-0.798,0.39-0.991c0.396-0.171,0.814-0.29,1.213-0.456c0.421-0.175,0.869-0.325,1.237-0.583
	c0.585-0.411,0.71-1.105,0.398-1.701c-0.818-1.562-2.703-2.146-4.266-1.344c-0.171,0.088-0.414,0.036-0.624,0.039
	c-0.044,0.001-0.087-0.052-0.134-0.071c-0.923-0.383-1.862-0.849-2.804-0.093c-0.962,0.772-1.094,1.862-0.985,2.991
	c0.041,0.423,0.171,0.859,0.356,1.243c0.385,0.804,1.602,1.123,2.303,0.599c0.167-0.125,0.18-0.458,0.263-0.695
	c-0.206-0.034-0.425-0.128-0.616-0.089c-0.546,0.112-1.09,0.241-1.411-0.376c-0.344-0.66-0.04-1.843,0.515-2.146
	c0.56-0.306,1.483-0.124,1.791,0.399c0.163,0.278,0.325,0.62,0.312,0.927c-0.045,1.164-0.103,2.332-0.273,3.482
	c-0.111,0.748-0.704,1.331-1.438,1.232c-0.613-0.082-1.283-0.491-1.717-0.954c-0.389-0.415-0.613-1.083-0.694-1.67
	c-0.245-1.765-0.394-3.547,0.185-5.289c0.324-0.973,0.849-1.818,1.806-2.279c1.082-0.522,1.968,0.02,2.823,0.613
	C189.982,82.86,190.163,83.037,190.386,83.224z M194.65,88.618c-0.125-0.052-0.251-0.104-0.376-0.156
	c-0.13,0.276-0.26,0.552-0.389,0.827c0.148,0.068,0.297,0.135,0.445,0.203C194.436,89.201,194.543,88.909,194.65,88.618z
	 M211.869,96.255c1.483,0.637,3.04,0.654,4.597,0.48c1.404-0.157,2.592-0.788,3.364-2.013c0.307-0.487,0.576-1.047,0.247-1.774
	c-0.146,0.235-0.271,0.37-0.32,0.527c-0.251,0.808-0.788,1.309-1.603,1.483c-1.442,0.308-2.887,0.349-4.307-0.112
	c-0.305-0.099-0.651-0.272-0.822-0.52c-0.137-0.2-0.107-0.583-0.028-0.849c0.157-0.536,0.55-1.04,0.576-1.57
	c0.079-1.607,0.007-3.22,0.039-4.831c0.015-0.743-0.29-1.27-0.952-1.495c-0.667-0.227-1.383-0.314-2.084-0.464
	c0.146-0.781,0.491-0.984,1.288-0.666c1.064,0.425,1.313,0.321,1.737-0.731c0.093-0.23,0.165-0.47,0.243-0.693
	c-0.679-0.335-1.305-0.666-1.952-0.95c-0.187-0.082-0.49-0.123-0.64-0.027c-0.723,0.462-1.41,1.036-1.469,1.948
	c-0.08,1.215-0.02,2.439-0.02,3.717c0.294-0.074,0.508-0.135,0.725-0.18c0.25-0.052,0.502-0.093,0.754-0.13
	c0.875-0.125,1.312,0.235,1.315,1.088c0.004,0.972-0.018,1.943,0.007,2.914c0.02,0.755-0.339,1.212-1.028,1.42
	c-0.506,0.153-1.026,0.258-1.539,0.385C209.898,94.433,210.722,95.763,211.869,96.255z M250.74,93.426
	c-0.264,0.957-0.959,1.535-1.861,1.59c-1.307,0.079-2.631-0.045-3.943-0.141c-0.302-0.022-0.626-0.239-0.87-0.447
	c-0.335-0.285-0.458-0.586-0.074-1.032c0.303-0.353,0.533-0.885,0.551-1.346c0.065-1.658,0.006-3.321,0.035-4.981
	c0.013-0.744-0.303-1.265-0.962-1.488c-0.664-0.225-1.377-0.306-2.077-0.452c0.13-0.775,0.49-0.996,1.273-0.681
	c0.498,0.2,1.028,0.523,1.426-0.106c0.261-0.412,0.413-0.893,0.596-1.302c-0.688-0.338-1.245-0.645-1.829-0.883
	c-0.254-0.103-0.692-0.199-0.829-0.069c-0.504,0.48-1.214,1.011-1.304,1.605c-0.196,1.302-0.061,2.654-0.061,4.005
	c0.257-0.063,0.476-0.124,0.697-0.17c0.249-0.052,0.5-0.105,0.753-0.134c0.849-0.098,1.255,0.251,1.259,1.077
	c0.004,0.945-0.028,1.892,0.01,2.836c0.032,0.814-0.309,1.32-1.079,1.537c-0.505,0.143-1.018,0.256-1.519,0.38
	c-0.02,1.511,0.927,2.896,2.454,3.21c1.281,0.263,2.626,0.331,3.938,0.294c1.415-0.041,2.59-0.727,3.408-1.917
	c0.358-0.52,0.589-1.096,0.353-1.884C250.921,93.157,250.781,93.278,250.74,93.426z M167.821,87.392
	c0.836-0.103,1.236,0.267,1.238,1.099c0.003,0.972-0.02,1.945,0.007,2.916c0.021,0.76-0.345,1.209-1.031,1.42
	c-0.505,0.155-1.026,0.258-1.538,0.384c-0.103,1.223,0.727,2.558,1.881,3.048c1.46,0.621,2.99,0.645,4.524,0.482
	c1.406-0.149,2.601-0.755,3.391-1.971c0.332-0.511,0.616-1.083,0.288-1.837c-0.146,0.236-0.274,0.371-0.321,0.531
	c-0.252,0.848-0.83,1.439-1.67,1.492c-1.333,0.085-2.68,0.01-4.018-0.054c-0.305-0.015-0.637-0.213-0.891-0.412
	c-0.394-0.307-0.596-0.629-0.111-1.131c0.301-0.311,0.498-0.846,0.513-1.289c0.058-1.687,0.011-3.376,0.03-5.064
	c0.007-0.64-0.244-1.139-0.813-1.347c-0.706-0.258-1.46-0.385-2.214-0.573c0.104-0.721,0.476-0.955,1.255-0.644
	c0.496,0.198,1.028,0.532,1.429-0.097c0.262-0.412,0.413-0.895,0.596-1.305c-0.688-0.34-1.248-0.643-1.83-0.891
	c-0.236-0.101-0.599-0.207-0.774-0.099c-0.73,0.448-1.418,1.024-1.476,1.94c-0.077,1.217-0.019,2.443-0.019,3.71
	C166.875,87.577,167.344,87.452,167.821,87.392z M366.445,88.014c-1.172-0.987-2.242-0.444-3.319-0.341
	c0-1.325-0.166-2.685,0.046-3.982c0.22-1.341,1.841-1.92,2.998-1.273c0.112,0.062,0.221,0.136,0.34,0.175
	c0.613,0.201,1.154,0.367,0.684,1.237c-0.464,0.861-0.727,1.022-1.691,0.648c-0.917-0.356-1.454-0.187-1.684,0.54
	c-0.027,0.085,0.006,0.19,0.012,0.317c0.405-0.052,0.772-0.148,1.137-0.138c1.51,0.046,2.202,0.775,2.201,2.276
	c0,1.047-0.04,2.097,0.014,3.141c0.037,0.708-0.227,1.142-0.82,1.495c-0.613,0.365-1.162,0.187-1.634-0.161
	c-0.442-0.325-0.841-0.75-1.148-1.207c-0.702-1.044-0.553-1.342,0.614-1.749C364.91,88.745,365.586,88.394,366.445,88.014z
	 M366.657,88.627c-0.12-0.054-0.24-0.109-0.36-0.163c-0.128,0.271-0.267,0.538-0.364,0.819c-0.007,0.022,0.267,0.143,0.41,0.217
	C366.447,89.21,366.552,88.919,366.657,88.627z M305.497,82.167c-0.609-0.405-1.166-0.281-1.693,0.12
	c-0.762,0.578-1.133,1.387-1.164,2.318c-0.04,1.251-0.116,2.517,0.023,3.755c0.117,1.043,0.397,2.115,0.852,3.054
	c0.22,0.453,0.989,0.817,1.547,0.879c0.654,0.073,1.296-0.456,1.381-1.117c0.175-1.377,0.199-2.777,0.225-4.168
	c0.005-0.265-0.23-0.569-0.424-0.796c-0.47-0.552-1.146-0.631-1.718-0.251c-0.591,0.393-0.793,1.38-0.448,2.071
	c0.297,0.594,0.777,0.542,1.31,0.451c0.244-0.042,0.506,0.033,0.76,0.054c-0.094,0.319-0.091,0.747-0.302,0.939
	c-0.758,0.69-2.151,0.296-2.305-0.738c-0.189-1.264-0.175-2.575-0.094-3.856c0.048-0.768,0.64-0.968,1.347-0.627
	c1.197,0.578,1.979,0.173,2.258-1.161C306.494,82.762,305.98,82.487,305.497,82.167z M273.705,96.445
	c-0.241-0.148-0.656-0.325-0.657-0.493c-0.002-0.447,0.034-1.041,0.313-1.314c0.651-0.636,1.549-0.684,2.427-0.535
	c0.452,0.076,0.992,0.058,1.138,0.735c-0.18,0.112-0.348,0.217-0.518,0.319c-0.685,0.411-0.748,0.805-0.192,1.381
	c0.156,0.162,0.353,0.307,0.56,0.39c1.096,0.44,2.2,0.424,3.269-0.075c1.351-0.631,1.807-2.497,0.871-3.619
	c-0.393,0.773-0.056,1.893-1.046,2.327c-0.833,0.365-1.71,0.577-2.74,0.035c0.303-0.256,0.508-0.426,0.709-0.601
	c0.641-0.554,0.617-0.93-0.043-1.477c-0.806-0.667-1.743-0.718-2.733-0.733c-1.823-0.028-2.914,1.231-2.606,3.191
	c0.068,0.433,0.534,0.957,0.947,1.134c0.342,0.147,1.064-0.012,1.28-0.294c0.278-0.362,0.291-0.986,0.265-1.49
	c-0.009-0.167-0.486-0.42-0.757-0.43c-0.235-0.009-0.608,0.223-0.684,0.435c-0.07,0.191,0.172,0.5,0.29,0.751
	c0.038,0.08,0.119,0.139,0.225,0.26C273.873,96.394,273.755,96.476,273.705,96.445z M200.764,95.178
	c0.85-0.31,1.73-0.558,2.531-0.964c0.486-0.247,0.451-0.927,0.06-1.236c-0.597-0.472-1.696-0.185-2.031,0.497
	c0.153,0.233,0.294,0.448,0.436,0.662c-0.275,0.154-0.532,0.371-0.827,0.449c-0.563,0.15-1.155,0.191-1.718,0.341
	c-0.185,0.049-0.478,0.344-0.448,0.444c0.348,1.148,1.833,2.412,3.067,1.576c0.312-0.212,0.612-0.444,0.912-0.662
	c1.472,1.066,2.066,1.191,2.777,0.595c0.642-0.539,0.959-2.225,0.553-3.082c-0.285-0.602-0.749-0.95-1.519-0.952
	c0.285,0.493,0.574,0.859,0.718,1.277c0.176,0.51,0.253,1.106-0.312,1.444c-0.514,0.308-0.868-0.093-1.155-0.459
	c-0.431-0.549-0.824-0.497-1.232,0.01c-0.144,0.179-0.282,0.365-0.447,0.523c-0.528,0.507-1.358,0.392-1.872-0.33
	C200.48,95.253,200.627,95.228,200.764,95.178z M191.748,78.97c-0.177-0.032-0.31-0.308-0.463-0.473
	c0.19,0.004,0.387,0.041,0.57,0.006c0.334-0.064,0.876-0.095,0.94-0.277c0.104-0.296,0.014-0.835-0.208-1.037
	c-0.512-0.467-1.604-0.114-1.772,0.56c-0.376,1.504-0.112,2.768,1.829,2.936c0.355,0.03,0.715,0.03,1.072,0.011
	c1.812-0.092,3.173-2.674,2.173-4.196c-0.182-0.278-0.683-0.51-1.01-0.479c-0.27,0.025-0.579,0.434-0.723,0.741
	c-0.134,0.285-0.028,0.646,0.438,0.568c0.567-0.095,0.84,0.25,0.92,0.694c0.099,0.554-0.304,0.859-0.79,0.95
	c-0.472,0.089-0.964,0.073-1.455,0.103C192.763,79.049,192.246,79.06,191.748,78.97z M233.695,79.98
	c0.719-0.925,1.041-1.981,0.878-3.144c-0.126-0.897-1.295-1.287-1.952-0.625c-0.319,0.321-0.449,0.831-0.651,1.228
	c1.774,0.537,1.011,1.867,1.137,3.004C233.366,80.243,233.569,80.141,233.695,79.98z"/>
<g>
	<path fill="#630000" d="M400.627,27.492c-0.489-1.238-0.576-1.264-2.772-0.914c-1.274-3.571,0.973-7.158,4.705-7.655
		c2.517-0.336,4.688,0.39,6.558,1.966c0.686,0.578,1.124,1.488,1.552,2.31c0.137,0.262-0.036,0.782-0.223,1.09
		c-0.199,0.329-0.569,0.563-0.888,0.807c-0.406,0.311-0.853,0.569-1.25,0.89c-1.314,1.058-1.387,2.138-0.247,3.353
		c1.098,1.17,2.706,1.266,3.715,0.218c0.255-0.265,0.498-0.542,0.838-0.915c0.268,0.316,0.466,0.606,0.718,0.838
		c1.183,1.091,3.335,0.522,3.873-1.004c0.222-0.631,0.052-1.086-0.505-1.45c-0.788-0.516-1.638-0.473-2.498-0.322
		c-0.498,0.087-0.987,0.232-1.57,0.372c-0.029-0.25-0.076-0.473-0.077-0.695c-0.007-1.294-0.064-2.592,0.026-3.879
		c0.035-0.506,0.287-1.114,0.647-1.461c1.469-1.409,3.29-2.242,5.305-2.233c2.33,0.011,4.583,0.575,6.535,1.971
		c0.673,0.481,1.01,1.11,0.996,1.994c-0.044,2.749,0.008,5.498-0.037,8.247c-0.009,0.534-0.15,1.163-0.46,1.578
		c-0.951,1.275-1.818,1.28-3.286,0.322c-0.976-0.638-1.634-1.625-1.981-2.776c-0.251-0.832-0.122-1.146,0.719-1.474
		c0.724-0.283,1.483-0.48,2.199-0.782c0.462-0.195,0.931-0.448,1.295-0.785c0.814-0.754,0.828-1.643,0.016-2.391
		c-1.539-1.418-3.418-2.203-5.414-2.74c-1.652-0.444-3.202-0.137-4.666,0.662c-0.348,0.19-0.607,0.544-0.907,0.822
		c0.037,0.059,0.074,0.119,0.111,0.178c0.467-0.045,0.934-0.11,1.402-0.13c1.778-0.076,3.001,0.634,3.367,2.354
		c0.43,2.018,0.455,4.086-0.914,5.874c-0.751,0.981-1.75,1.642-2.958,1.81c-1.012,0.142-1.899-0.374-2.595-1.077
		c-0.485-0.489-0.844-0.52-1.348-0.074c-0.338,0.299-0.749,0.518-1.137,0.757c-1.114,0.686-2.173,0.41-3.158-0.262
		c-1.454-0.991-2.194-2.455-2.334-4.154c-0.093-1.127,0.702-1.942,1.494-2.65c0.617-0.551,1.297-1.031,1.934-1.53
		c-0.827-2.708-6.149-4.035-8.399-1.15c0.482,0.036,0.933,0.057,1.381,0.105c0.955,0.102,1.654,0.622,1.888,1.529
		c0.279,1.079,0.388,2.206-0.537,3.101c-0.502,0.486-1.071,0.906-1.546,1.416c-0.171,0.184-0.154,0.544-0.223,0.823
		c0.263-0.11,0.622-0.147,0.77-0.344c0.371-0.497,0.791-0.708,1.39-0.538c0.634,0.18,0.771,0.676,0.815,1.249
		c0.132,1.73-0.796,2.822-2.54,2.823c-1.631,0.002-2.714-0.822-2.737-2.581c-0.019-1.492,0.707-2.425,1.977-3.04
		C399.962,27.793,400.278,27.653,400.627,27.492z M425.207,28.212c-0.114-0.036-0.228-0.072-0.342-0.108
		c-0.357,0.306-0.868,0.546-0.61,1.173c0.056,0.136,0.388,0.158,0.594,0.232C424.969,29.076,425.088,28.644,425.207,28.212z
		 M197.947,26.964c0-1.738-0.014-3.37,0.018-5.002c0.004-0.202,0.232-0.413,0.385-0.597c1.206-1.45,2.764-2.423,4.618-2.514
		c0.966-0.047,2.01,0.487,2.936,0.931c0.987,0.473,1.865,1.169,2.814,1.726c0.47,0.276,1.062,0.492,1.404-0.126
		c0.332-0.598-0.037-1.09-0.545-1.429c-0.356-0.237-0.798-0.358-1.122-0.628c-0.344-0.288-0.858-0.723-0.819-1.036
		c0.054-0.441,0.462-0.984,0.869-1.21c1.59-0.878,4.021,0.722,4.055,2.622c0.007,0.394-0.074,0.79-0.124,1.282
		c0.586-0.48,1.135-0.894,1.643-1.354c0.967-0.876,2.092-1.002,3.226-0.546c0.888,0.357,1.718,0.888,2.519,1.424
		c0.81,0.542,1.15,1.321,1.127,2.35c-0.059,2.775-0.019,5.552-0.021,8.329c-0.001,1.924-1.52,2.9-3.214,2.009
		c-1.303-0.686-2.051-1.869-2.499-3.241c-0.178-0.548,0.058-0.97,0.573-1.177c0.796-0.32,1.61-0.598,2.419-0.882
		c2.106-0.739,2.558-2.516,0.91-4.043c-2.752-2.551-4.342-2.525-7.826-1.18c-0.446,0.172-0.865,0.426-1.279,0.671
		c-1.699,1.004-3.342,0.646-4.999-0.139c-0.845-0.4-1.716-0.764-2.608-1.04c-1.226-0.379-2.75,0.237-3.223,1.146
		c0.955,0.063,1.96,0.05,2.935,0.214c1.069,0.18,1.788,0.894,2.04,1.953c0.282,1.178,0.059,2.25-0.95,3.054
		c-0.29,0.231-0.578,0.466-0.859,0.692c0.85,1.544,2.135,1.386,4.486-0.565c0.201,0.231,0.398,0.47,0.607,0.698
		c0.714,0.778,1.266,0.871,2.234,0.453c1.046-0.453,1.71-1.276,2.258-2.225c0.132-0.229,0.247-0.467,0.427-0.81
		c0.089,0.206,0.173,0.309,0.17,0.409c-0.045,1.661-0.325,3.262-1.234,4.698c-1.095,1.731-2.804,2.177-4.482,1.004
		c-0.965-0.674-1.707-1.065-2.717-0.064c-0.461,0.457-1.238,0.594-1.735,0.817c0.254,0.478,0.499,1.005,0.809,1.49
		c0.134,0.209,0.397,0.467,0.607,0.474c1.454,0.041,2.91,0.01,4.366,0.027c0.56,0.006,0.528-0.344,0.596-0.741
		c0.067-0.391,0.204-0.856,0.478-1.097c0.189-0.166,0.716-0.104,0.995,0.041c0.21,0.11,0.444,0.628,0.357,0.761
		c-0.162,0.246-0.55,0.345-1.031,0.606c0.226,0.145,0.436,0.386,0.669,0.409c0.722,0.072,1.454,0.034,2.178,0.093
		c0.386,0.031,0.763,0.175,1.145,0.269c0.028,0.085,0.057,0.17,0.085,0.254c-0.568,0.39-1.136,0.781-1.715,1.178
		c-0.501-0.93-0.759-1.017-1.985-0.72c0.069,0.173,0.122,0.346,0.204,0.503c0.62,1.188,0.314,2.272-0.898,2.822
		c-1.188,0.54-2.403,0.673-3.448-0.339c-0.413-0.399-0.712-0.359-1.073,0.034c-0.729,0.797-1.542,0.806-2.482,0.332
		c-1.379-0.696-2.245-1.443-2.746-2.602c0.55-0.237,1.102-0.474,1.873-0.805c-1.017-0.342-2.098-0.494-1.982-1.69
		c0.106-1.079,1.09-1.2,1.902-1.413c-0.614-0.449-1.266-0.826-1.786-1.338c-0.45-0.443-0.822-1.003-1.101-1.574
		c-0.803-1.641-0.674-1.788,1.113-1.96c0.82-0.079,1.65-0.272,2.42-0.561c0.358-0.134,0.583-0.62,0.87-0.946
		c-0.346-0.247-0.69-0.702-1.036-0.702c-1.008,0.001-2.016,0.176-3.022,0.3C198.502,26.771,198.282,26.867,197.947,26.964z
		 M202.174,37.375c0.862,0.99,1.666,1.197,2.618,0.529c0.866-0.608,1.622-0.844,2.415,0.062c0.116,0.132,0.328,0.265,0.489,0.256
		c0.392-0.02,0.822-0.043,1.151-0.222c0.172-0.094,0.258-0.536,0.214-0.793c-0.078-0.469-0.395-0.686-0.926-0.669
		c-1.262,0.039-2.526,0.048-3.788,0.001C203.503,36.506,202.755,36.609,202.174,37.375z M201.286,35.847
		c0.31-0.28,0.506-0.457,0.702-0.634c-0.267-0.234-0.514-0.615-0.809-0.658c-0.269-0.038-0.591,0.291-0.89,0.458
		C200.586,35.262,200.883,35.511,201.286,35.847z M220.18,28.232c-0.136-0.066-0.272-0.13-0.407-0.196
		c-0.219,0.372-0.438,0.744-0.658,1.117c0.215,0.123,0.43,0.246,0.646,0.37C219.901,29.092,220.04,28.662,220.18,28.232z
		 M174.294,19.137c-0.588-0.298-1.086-0.298-1.654,0.068c-1.316,0.846-2.328,1.807-2.046,3.582c0.109,0.684,0.018,1.399,0.018,2.1
		c0,0.665,0,1.33,0,2.096c0.553-0.089,0.97-0.178,1.391-0.218c0.64-0.06,1.294-0.182,1.922-0.105c1.5,0.184,2.114,1.062,1.558,2.206
		c-0.194,0.4-0.604,0.791-1.011,0.976c-1.878,0.854-3.832,0.778-5.914,0.357c0.746-1.769,0.966-3.519-0.039-5.157
		c-1.139-1.854-2.994-1.683-4.818-1.366c0.036-1.409,1.297-1.666,2.348-1.254c1.653,0.648,2.069,0.471,2.734-1.19
		c0.127-0.318,0.217-0.651,0.312-0.943c-0.668-0.25-1.364-0.37-1.89-0.735c-1.213-0.842-2.27-0.783-3.3,0.25
		c-0.17,0.171-0.359,0.324-0.54,0.485c-0.514,0.454-0.753,1.004-0.731,1.71c0.038,1.185,0.01,2.372,0.01,3.558
		c0,0.492,0,0.985,0,1.446c1.023-0.146,1.894-0.336,2.771-0.382c1.153-0.059,2.252,0.558,2.337,1.197
		c0.106,0.799-0.596,1.538-1.842,1.955c-1.938,0.65-3.895,0.598-5.898,0.31c-2.239-0.322-4.646-2.021-4.403-5.022
		c0.148-1.826,2.054-3.143,3.745-2.458c0.517,0.21,0.717,0.588,0.537,1.092c-0.192,0.537-0.654,0.494-1.086,0.342
		c-0.222-0.078-0.402-0.275-0.623-0.366c-0.176-0.072-0.413-0.14-0.574-0.079c-0.69,0.259-1.328,1.41-1.26,2.194
		c0.07,0.815,0.659,1.457,1.53,1.666c1.394,0.335,2.72-0.419,3.125-1.84c0.438-1.536,0.413-3.1-0.022-4.625
		c-0.273-0.954-0.82-1.734-1.886-2.036c-1.914-0.541-3.506,0.754-4.018,2.214c-0.658,1.875-0.72,3.816-0.524,5.746
		c0.47,4.62,2.732,6.456,6.814,6.627c1.282,0.054,2.582-0.388,3.878-0.578c0.353-0.052,0.746-0.102,1.074-0.001
		c2.182,0.682,4.377,0.894,6.557,0.098c2.517-0.919,4.75-3.28,4.063-6.76c-0.314-1.59-1.674-2.768-3.298-2.793
		c-0.663-0.01-1.328,0.07-2.03,0.112c0-0.155-0.034-0.293,0.006-0.406c0.315-0.909,1.213-1.218,2.283-0.798
		c1.693,0.664,2.205,0.43,2.816-1.295c0.096-0.272,0.178-0.55,0.246-0.763C175.986,19.915,175.124,19.558,174.294,19.137z
		 M142.758,22.312c0.561-0.813,1.021-1.574,1.574-2.261c0.982-1.221,1.988-1.538,3.418-0.967c0.888,0.355,1.717,0.89,2.517,1.426
		c0.809,0.542,1.149,1.321,1.127,2.349c-0.058,2.774-0.018,5.55-0.021,8.326c-0.002,1.924-1.518,2.902-3.211,2.013
		c-1.303-0.685-2.053-1.866-2.501-3.238c-0.178-0.547,0.05-0.974,0.566-1.18c0.821-0.328,1.662-0.606,2.496-0.904
		c1.275-0.457,1.89-1.253,1.758-2.37c-0.039-0.33-0.166-0.703-0.376-0.953c-1.09-1.289-2.538-1.962-4.171-2.25
		c-1.005-0.178-1.838,0.317-2.614,0.854c-0.193,0.134-0.29,0.498-0.315,0.766c-0.178,1.894-1.568,3.248-3.465,3.229
		c-0.762-0.008-1.56-0.11-2.274-0.362c-0.83-0.293-1.072-1.153-0.836-2.282c0.158-0.755,0.712-1.183,1.576-1.213
		c0.845-0.029,1.612,0.045,1.954,1.03c0.133,0.383,1.23,0.566,1.41,0.225c0.159-0.302,0.166-0.982-0.026-1.118
		c-0.749-0.534-1.558-1.131-2.428-1.317c-2.75-0.586-5.5-0.602-8.098,0.737c-0.247,0.127-0.483,0.278-0.771,0.445
		c0.903,0.194,1.719,0.289,2.475,0.553c1.119,0.39,1.803,1.149,1.594,2.452c-0.142,0.877,0.11,1.37,1.082,1.666
		c0.608,0.185,1.165,0.871,1.521,1.466c0.453,0.756,1.058,1.061,1.848,1.058c1.707-0.006,3.092-0.617,3.882-2.239
		c0.098-0.202,0.231-0.389,0.389-0.651c0.33,2.562-1.088,5.734-3.995,5.97c-1.769,0.143-3.214-1.111-3.456-2.925
		c-0.092-0.695-0.291-1.31-1.274-1.606c0,0.761-0.073,1.446,0.017,2.111c0.145,1.079-0.498,1.641-1.253,2.148
		c-0.776,0.522-1.522,0.173-2.187-0.226c-1.183-0.71-1.883-1.821-2.278-3.123c-0.165-0.544-0.002-0.967,0.494-1.318
		c0.91-0.645,1.909-0.952,3.01-0.974c0.287-0.006,0.574-0.001,0.898-0.001c-0.451-1.145-0.822-1.197-4.365-0.681
		c-0.033-0.194-0.093-0.39-0.095-0.586c-0.011-0.754,0.084-1.522-0.024-2.261c-0.206-1.41,0.429-2.364,1.455-3.188
		c1.374-1.102,2.892-1.782,4.667-2.01c1.387-0.179,2.73-0.141,4.059,0.21C140.322,19.622,141.754,20.664,142.758,22.312z
		 M150.61,28.22c-0.137-0.066-0.274-0.132-0.41-0.198c-0.213,0.382-0.426,0.762-0.638,1.144c0.218,0.118,0.435,0.234,0.653,0.352
		C150.347,29.085,150.478,28.653,150.61,28.22z M133.398,29.559c-0.242-0.219-0.428-0.494-0.536-0.466
		c-0.222,0.058-0.401,0.278-0.597,0.43c0.198,0.182,0.374,0.405,0.605,0.518C132.935,30.073,133.158,29.785,133.398,29.559z
		 M287.315,23.28c0.942,0,1.826-0.041,2.703,0.01c1.269,0.074,2.13,0.805,2.508,1.965c0.39,1.198,0.231,2.351-0.826,3.226
		c-0.305,0.252-0.611,0.502-1.049,0.861c0.423,0.262,0.725,0.547,1.08,0.652c1.938,0.572,3.897,0.775,5.848,0.054
		c0.84-0.31,1.497-0.864,1.834-1.715c0.118-0.298,0.126-0.638,0.198-1.037c-1.292,0.52-2.052,0.422-2.715-0.272
		c-0.629-0.658-0.723-1.433-0.27-2.218c0.731-1.268,3.186-1.452,3.878-0.26c0.248,0.426,0.434,0.955,0.444,1.441
		c0.05,2.343,0.059,4.688,0.026,7.031c-0.016,1.126-0.594,1.598-1.658,1.432c-0.306-0.048-0.768-0.245-0.823-0.459
		c-0.076-0.295,0.089-0.732,0.292-1.001c0.346-0.456,0.841-0.81,0.73-1.374c-1.079,0.536-2.092,1.278-3.219,1.554
		c-2.962,0.726-5.885,0.635-8.421-1.375c-1.026-0.814-1.544-2.071-1.421-2.924c1.145-0.23,2.268-0.456,3.39-0.683
		c0.079-0.016,0.168-0.022,0.233-0.063c0.483-0.307,1.235-0.486,1.104-1.214c-0.134-0.744-0.874-0.623-1.408-0.568
		c-0.874,0.09-1.738,0.287-2.606,0.443c-0.23,0.042-0.458,0.1-0.809,0.178c0-1.675-0.16-3.28,0.077-4.823
		c0.098-0.638,0.989-1.224,1.623-1.693c1.273-0.939,2.728-1.592,4.314-1.619c0.903-0.015,1.828,0.338,2.716,0.614
		c0.742,0.23,1.453,0.566,2.159,0.894c0.746,0.346,1.444,0.313,2.158-0.09c0.609-0.344,1.247-0.637,1.866-0.963
		c0.923-0.487,1.896-0.619,2.862-0.232c1.395,0.559,2.778,1.158,4.128,1.819c0.761,0.373,1.149,0.998,1.127,1.952
		c-0.064,2.801-0.021,5.604-0.023,8.406c-0.002,1.863-1.517,2.836-3.183,1.981c-1.338-0.686-2.103-1.888-2.542-3.297
		c-0.177-0.568,0.118-0.956,0.618-1.154c0.822-0.326,1.674-0.577,2.496-0.904c0.82-0.326,1.564-0.763,1.719-1.754
		c0.17-1.09-0.423-1.785-1.244-2.35c-0.288-0.198-0.574-0.426-0.896-0.542c-1.592-0.57-3.18-1.158-4.8-1.636
		c-1.204-0.355-2.37,0.062-3.405,0.639c-1.518,0.846-3.011,0.785-4.591,0.268c-1.041-0.341-2.114-0.594-3.184-0.833
		C289.34,21.424,287.784,22.26,287.315,23.28z M308.585,28.192c-0.142-0.05-0.285-0.099-0.427-0.149
		c-0.195,0.383-0.391,0.766-0.586,1.15c0.222,0.106,0.445,0.214,0.667,0.32C308.354,29.072,308.47,28.632,308.585,28.192z
		 M327.375,26.752c0.846-0.01,1.743-0.102,2.526,0.14c1.375,0.425,1.525,1.74,0.391,2.659c-0.246,0.2-0.542,0.411-0.841,0.46
		c-1.185,0.193-2.382,0.462-3.57,0.443c-1.548-0.023-2.858-0.658-3.635-2.138c-0.241-0.458-0.27-0.813,0.008-1.265
		c0.706-1.145,1.394-2.303,2.018-3.494c0.157-0.299,0.204-0.843,0.034-1.091c-0.538-0.786-1.111-1.597-1.838-2.195
		c-1.576-1.298-3.452-1.624-5.459-1.35c-2.611,0.357-4.522,2.488-4.522,5.086c0,0.674-0.007,1.347,0.006,2.021
		c0.004,0.197,0.071,0.392,0.11,0.59c2.076-0.484,2.519-0.337,2.746,0.908c-0.278,0.129-0.57,0.26-0.859,0.397
		c-1.27,0.604-2.024,1.521-2.015,3.014c0.01,1.839,1.142,2.646,2.775,2.62c1.774-0.028,2.733-1.186,2.462-2.933
		c-0.062-0.404-0.398-0.891-0.75-1.094c-0.512-0.294-1.005-0.043-1.39,0.46c-0.158,0.207-0.541,0.242-0.822,0.356
		c0.086-0.281,0.094-0.634,0.274-0.827c0.457-0.49,1.002-0.895,1.492-1.355c0.942-0.882,0.85-2.005,0.582-3.09
		c-0.235-0.946-0.949-1.477-1.935-1.579c-0.434-0.045-0.871-0.058-1.389-0.09c0.132-0.154,0.215-0.28,0.326-0.376
		c2.415-2.09,5.506-1.558,7.335,1.224c0.32,0.487,0.334,0.839-0.003,1.296c-0.702,0.952-1.364,1.935-2.049,2.9
		c-0.794,1.118-0.838,1.327-0.004,2.391c0.458,0.584,1.01,1.149,1.634,1.538c2.243,1.4,4.667,1.446,7.142,0.732
		c3.127-0.902,4.767-3.537,4.061-6.948c-0.342-1.648-1.681-2.657-3.384-2.663c-0.634-0.002-1.269,0.074-1.915,0.114
		c0.178-1,0.549-1.402,1.406-1.337c0.63,0.048,1.242,0.314,1.873,0.41c0.312,0.047,0.746,0.043,0.958-0.135
		c0.703-0.59,0.954-1.438,1.125-2.21c-0.945-0.426-1.78-0.84-2.646-1.178c-0.377-0.147-0.869-0.294-1.214-0.173
		c-1.665,0.583-2.506,1.856-2.506,3.605c0,0.916,0,1.832,0,2.749c0,0.527,0,1.054,0,1.681
		C326.491,26.913,326.932,26.758,327.375,26.752z M265.633,23.157c-2.714-1.767-3.49-2.009-4.23-1.409
		c0.634,0.439,1.277,0.884,1.943,1.346c-1.177,1.101-2.353,0.413-3.49,0.31c-0.058-0.006-0.122-0.098-0.158-0.165
		c-0.32-0.588,0.034-2.162,0.597-2.557c0.638-0.448,1.316-0.842,1.942-1.306c0.916-0.68,1.83-0.634,2.769-0.088
		c0.558,0.325,1.118,0.65,1.664,0.994c0.679,0.427,1.373,0.44,1.914-0.137c1.427-1.524,2.906-1.529,4.579-0.41
		c0.539,0.361,1.251,0.464,1.886,0.685c-0.063,1.696-1.573,2.799-3.138,2.252c-0.835-0.292-1.628-0.71-2.47-0.977
		c-0.36-0.114-0.859-0.111-1.184,0.055c-0.678,0.347-1.281,0.838-2.08,1.382c0.407,0.044,0.629,0.071,0.851,0.092
		c2.274,0.214,4.549,0.415,6.82,0.658c0.171,0.018,0.446,0.322,0.448,0.494c0.03,2.479,0.041,4.959,0.01,7.438
		c-0.01,0.854-1.491,1.909-2.308,1.698c-1.868-0.482-2.837-1.837-3.39-3.568c-0.217-0.678,0.293-0.78,0.768-0.956
		c1.078-0.399,2.139-0.846,3.206-1.278c0.145-0.058,0.279-0.144,0.419-0.218c-0.042-0.075-0.082-0.15-0.124-0.225
		c-0.59-0.107-1.177-0.273-1.771-0.31c-2.252-0.14-4.511-0.37-6.758-0.293c-1.031,0.036-2.065,0.657-3.052,1.111
		c-0.646,0.298-0.911,0.926-0.722,1.637c0.186,0.694,0.738,0.935,1.395,0.978c0.326-0.493,0.598-0.991,0.954-1.421
		c0.906-1.094,2.282-1.488,3.529-1.091c0.83,0.264,1.713,1.392,1.168,2.359c-0.422,0.75-1.057,1.007-1.768,0.525
		c-0.177-0.12-0.335-0.273-0.521-0.376c-0.466-0.259-1.013-0.35-1.278,0.167c-0.167,0.326-0.169,0.94,0.037,1.213
		c0.457,0.606,0.174,0.967-0.25,1.284c-0.854,0.637-1.805,0.633-2.754,0.232c-0.849-0.358-1.33-1.074-1.376-1.946
		c-0.084-1.613-0.053-3.232-0.038-4.849c0.002-0.217,0.149-0.455,0.283-0.645c1.113-1.568,2.641-2.402,4.554-2.543
		C264.815,23.284,265.123,23.226,265.633,23.157z M273.565,28.262c-0.122-0.073-0.244-0.146-0.366-0.219
		c-0.248,0.362-0.495,0.725-0.743,1.086c0.208,0.133,0.415,0.265,0.623,0.398C273.241,29.105,273.403,28.684,273.565,28.262z
		 M184.898,27.818c-0.875,0.077-1.694,0.213-2.513,0.207c-1.261-0.009-2.103-0.645-2.246-1.57c-0.209-1.362,0.288-2.123,1.694-2.594
		c0.074-0.025,0.143-0.066,0.275-0.3c-0.628-0.201-1.256-0.402-1.917-0.613c-0.255-1.063-0.166-2.017,1.017-2.594
		c0.43-0.21,0.826-0.51,1.201-0.812c1.227-0.989,2.41-0.734,3.621,0.045c2.258,1.454,2.031,1.322,3.973-0.17
		c0.799-0.614,1.549-0.693,2.446-0.252c1.004,0.493,2.052,0.897,3.088,1.343c-0.33,1.654-1.694,2.487-3.324,1.971
		c-0.69-0.218-1.382-0.458-2.033-0.77c-0.713-0.343-1.318-0.221-1.854,0.282c-1.71,1.602-2.23,1.342-4.09,0.142
		c-0.609-0.392-1.215-0.83-2.01-0.651c-0.142,0.032-0.27,0.126-0.508,0.242c0.621,0.32,1.147,0.592,1.718,0.886
		c-0.193,0.386-0.354,0.709-0.546,1.092c0.516,0.115,0.994,0.165,1.425,0.334c0.441,0.174,0.835,0.466,1.194,0.675
		c0.938-0.574,1.822-1.188,2.771-1.673c1.167-0.597,2.383-0.147,3.558,0.062c0.838,0.149,1.655,0.444,2.458,0.738
		c0.204,0.074,0.454,0.389,0.456,0.596c0.031,2.452,0.04,4.905,0.01,7.357c-0.011,0.913-1.482,1.944-2.358,1.712
		c-1.836-0.487-2.774-1.838-3.337-3.526c-0.24-0.72,0.308-0.807,0.813-0.992c1.08-0.394,2.138-0.853,3.196-1.302
		c0.128-0.054,0.211-0.216,0.386-0.403c-2.278-0.834-4.444-1.694-6.84-0.74c-0.563,0.224-0.78,0.525-0.758,1.139
		c0.046,1.292,0.024,2.586,0.01,3.88c-0.01,1.017-0.486,1.645-1.494,1.791c-0.754,0.11-1.549,0.16-2.294,0.041
		c-1.255-0.202-1.899-1.029-1.961-2.294c-0.027-0.553-0.005-1.109-0.005-1.674C183.448,29.789,184.698,29.349,184.898,27.818z
		 M194.011,28.236c-0.15-0.065-0.301-0.13-0.451-0.195c-0.199,0.395-0.398,0.79-0.598,1.186c0.202,0.098,0.402,0.196,0.604,0.294
		C193.715,29.092,193.863,28.664,194.011,28.236z M371.086,29.455c0.412,1.377,1.218,2.46,2.52,3.098
		c2.044,1.002,4.197,1.164,6.438,0.846c2.777-0.394,4.873-2.21,5.518-4.922c0.517-2.175-0.202-3.878-2.075-4.458
		c-0.81-0.25-1.786-0.266-2.618-0.078c-1.496,0.338-2.012,2.047-0.978,2.994c0.728,0.666,1.632,0.996,2.607,0.61
		c0.594-0.235,1.122-0.634,1.678-0.957c0.294,1.607-0.359,2.853-1.899,3.447c-1.913,0.738-3.854,0.541-5.77-0.002
		c-0.398-0.113-0.738-0.426-1.21-0.71c0.392-0.296,0.622-0.472,0.854-0.646c1.131-0.849,1.41-1.996,1.092-3.307
		c-0.282-1.158-1.331-1.983-2.68-2.094c-0.811-0.066-1.632-0.012-2.464-0.012c0.668-1.282,1.841-1.742,2.978-1.005
		c1.379,0.894,2.616,0.979,3.858-0.162c0.038-0.035,0.092-0.073,0.141-0.075c0.56-0.035,1.142-0.173,1.675-0.067
		c0.675,0.134,1.302,0.493,1.966,0.71c1.69,0.554,3.07-0.422,3.2-2.158c-1.032-0.458-2.05-0.876-3.036-1.359
		c-0.818-0.401-1.526-0.337-2.246,0.222c-2.106,1.633-1.644,1.66-4.073,0.131c-1.185-0.746-2.279-0.842-3.403,0.087
		c-0.517,0.427-1.134,0.74-1.618,1.198c-0.273,0.258-0.502,0.698-0.517,1.066c-0.058,1.453-0.027,2.909-0.02,4.363
		c0.001,0.227,0.049,0.454,0.085,0.767c0.342-0.098,0.589-0.201,0.845-0.238c1.005-0.147,2.01-0.322,3.022-0.379
		c0.294-0.017,0.724,0.259,0.867,0.523c0.085,0.156-0.198,0.666-0.44,0.814c-0.514,0.316-1.091,0.583-1.678,0.719
		c-0.853,0.198-1.737,0.263-2.659,0.392C371.056,29.04,371.028,29.26,371.086,29.455z M340.658,28.582
		c1.392-1.207,1.506-3.144,0.276-4.43c-0.924-0.965-2.098-0.976-3.302-0.896c-0.375,0.025-0.75,0.036-1.211,0.057
		c0.954-1.454,1.953-1.77,3.259-0.965c1.214,0.749,2.319,0.91,3.435-0.11c0.078-0.071,0.184-0.111,0.274-0.171
		c0.585-0.398,1.176-0.435,1.828-0.131c0.582,0.272,1.192,0.492,1.806,0.688c1.804,0.577,3.048-0.25,3.321-2.125
		c-0.974-0.424-1.956-0.792-2.88-1.273c-0.922-0.479-1.798-0.534-2.51,0.232c-1.263,1.36-2.464,1.278-3.837,0.161
		c-1.178-0.958-2.442-1.018-3.66,0.036c-0.303,0.262-0.655,0.472-0.999,0.682c-0.77,0.471-1.15,1.078-1.07,2.048
		c0.098,1.205,0.021,2.423,0.026,3.635c0.001,0.285,0.029,0.57,0.05,0.958c0.354-0.096,0.601-0.191,0.856-0.226
		c1.058-0.147,2.116-0.312,3.18-0.386c0.245-0.017,0.656,0.255,0.729,0.479c0.069,0.212-0.134,0.661-0.346,0.786
		c-0.567,0.333-1.183,0.632-1.818,0.789c-0.843,0.209-1.722,0.27-2.574,0.393c-0.016,1.394,1.008,2.978,2.43,3.69
		c2.087,1.047,4.292,1.214,6.588,0.887c2.734-0.388,4.886-2.278,5.481-4.966c0.478-2.162-0.222-3.811-2.066-4.395
		c-0.808-0.256-1.76-0.217-2.62-0.107c-0.854,0.11-1.47,0.934-1.521,1.678c-0.056,0.823,0.354,1.515,1.319,1.794
		c0.628,0.182,1.368,0.19,2.007,0.049c0.525-0.117,0.975-0.57,1.455-0.871c0.362,1.529-0.307,2.849-1.85,3.448
		c-1.966,0.763-3.956,0.554-5.922-0.035c-0.354-0.106-0.654-0.392-1.078-0.657C340.12,29.008,340.398,28.807,340.658,28.582z
		 M228.536,27.389c-1.259-1.503-2.857-0.458-4.48-0.423c0-0.954,0.092-1.918-0.022-2.857c-0.166-1.371,0.41-2.315,1.416-3.127
		c1.392-1.124,2.928-1.818,4.734-2.05c1.838-0.237,3.618-0.153,5.25,0.691c0.93,0.481,1.791,1.198,2.505,1.972
		c0.985,1.069,1.062,2.389,0.397,3.681c-0.627,1.218-1.646,1.938-3.05,1.878c-0.814-0.035-1.659-0.15-2.419-0.425
		c-0.749-0.271-0.972-1.21-0.713-2.265c0.194-0.789,0.738-1.149,1.531-1.166c0.833-0.018,1.622,0.002,1.97,0.999
		c0.139,0.4,1.181,0.612,1.399,0.266c0.177-0.28,0.199-0.974,0.015-1.109c-0.718-0.528-1.499-1.112-2.342-1.304
		c-2.918-0.663-5.814-0.642-8.528,0.881c-0.13,0.073-0.242,0.174-0.502,0.364c0.62,0.057,1.095,0.035,1.531,0.155
		c0.588,0.162,1.172,0.382,1.71,0.669c0.82,0.437,1.002,1.206,0.89,2.071c-0.111,0.862,0.079,1.386,1.074,1.677
		c0.606,0.177,1.166,0.867,1.523,1.462c0.453,0.753,1.053,1.066,1.845,1.063c1.705-0.006,3.094-0.61,3.886-2.231
		c0.101-0.207,0.232-0.399,0.43-0.572c0.121,1.41-0.177,2.73-0.92,3.922c-1.039,1.665-2.642,2.271-4.508,1.718
		c-1.294-0.384-1.835-1.422-2.049-2.653c-0.172-0.993-0.359-1.295-1.28-1.56c0,0.805,0.003,1.57-0.001,2.336
		c-0.006,1.299-1.346,2.318-2.584,1.968c-1.453-0.41-3.01-2.185-3.128-3.678c-0.026-0.332,0.175-0.792,0.429-1.015
		c0.856-0.754,1.915-1.042,3.046-1.069c0.293-0.007,0.586-0.001,0.878-0.001C228.493,27.568,228.514,27.479,228.536,27.389z
		 M228.578,30.268c0.173-0.319,0.356-0.505,0.344-0.678c-0.013-0.182-0.211-0.351-0.329-0.526c-0.209,0.17-0.418,0.341-0.626,0.511
		C228.132,29.762,228.298,29.949,228.578,30.268z M247.624,29.1c0,0.896,0.01,1.698-0.002,2.5c-0.017,1.121-1.408,2.146-2.491,1.844
		c-1.845-0.514-2.704-1.918-3.227-3.609c-0.154-0.495,0.051-0.865,0.473-1.174c0.922-0.676,1.95-0.986,3.081-1.003
		c0.285-0.004,0.57-0.001,0.905-0.001c-0.552-1.147-0.749-1.174-4.51-0.673c0-0.753,0.104-1.506-0.019-2.221
		c-0.372-2.145,0.729-3.425,2.374-4.507c3.004-1.976,8.262-2.018,10.97,0.636c2.101,2.059,1.67,5.122-0.992,6.077
		c-1.102,0.395-2.282,0.378-3.382-0.138c-0.838-0.393-1.12-1.223-0.858-2.362c0.17-0.739,0.732-1.152,1.61-1.174
		c0.812-0.019,1.56,0.042,1.894,0.994c0.141,0.402,1.17,0.622,1.397,0.277c0.18-0.275,0.207-0.973,0.025-1.106
		c-0.718-0.529-1.498-1.115-2.339-1.307c-2.946-0.671-5.867-0.642-8.601,0.91c-0.107,0.061-0.198,0.151-0.425,0.327
		c0.604,0.057,1.063,0.076,1.514,0.151c0.34,0.057,0.68,0.157,0.999,0.288c1.089,0.447,1.813,1.138,1.611,2.452
		c-0.13,0.848,0.05,1.396,1.061,1.682c0.606,0.171,1.172,0.862,1.527,1.455c0.451,0.753,1.046,1.074,1.839,1.073
		c1.704-0.003,3.096-0.601,3.891-2.222c0.102-0.209,0.231-0.405,0.434-0.586c0.218,1.136-0.133,2.192-0.534,3.21
		c-0.573,1.453-1.66,2.46-3.22,2.619c-1.84,0.188-3.314-0.557-3.72-2.826C248.73,29.697,248.554,29.395,247.624,29.1z
		 M246.908,29.632c-0.226-0.255-0.426-0.567-0.494-0.541c-0.242,0.095-0.44,0.304-0.655,0.47c0.187,0.169,0.351,0.403,0.57,0.478
		C246.44,30.077,246.65,29.824,246.908,29.632z M357.774,27.293c-1.507-1.219-2.995-0.438-4.57-0.3c0-0.892,0-1.743,0-2.594
		c0-0.808-0.002-1.616,0-2.424c0.003-1.116,1.647-3.014,2.758-3.074c0.391-0.021,0.798,0.258,1.198,0.397
		c0.902,0.311,1.801,0.634,2.712,0.918c0.142,0.045,0.352-0.067,0.511-0.145c0.854-0.418,1.692-1.176,2.554-1.202
		c1.532-0.046,2.86,0.799,4.022,1.821c0.649,0.57,0.942,1.242,0.93,2.126c-0.037,2.746-0.039,5.494,0,8.242
		c0.014,1.023-0.343,1.778-1.218,2.274c-0.921,0.522-1.83,0.17-2.455-0.426c-0.798-0.759-1.441-1.715-2.004-2.673
		c-0.343-0.584-0.127-1.229,0.598-1.512c0.75-0.292,1.514-0.55,2.272-0.82c2.123-0.755,2.602-2.482,0.983-4.018
		c-2.206-2.092-4.084-2.74-6.967-1.534c-0.987,0.413-1.844,0.47-2.831,0.038c-1.142-0.501-1.889-0.017-2.065,1.253
		c0.437-0.038,0.868-0.146,1.28-0.095c0.734,0.089,1.493,0.178,2.174,0.442c0.918,0.356,1.394,1.044,1.345,2.138
		c-0.082,1.801-0.016,3.608-0.024,5.413c-0.006,1.187-1.374,2.217-2.507,1.904c-1.818-0.501-2.654-1.899-3.208-3.538
		c-0.218-0.644,0.305-0.736,0.738-0.9c1.048-0.398,2.092-0.807,3.129-1.235C357.336,27.681,357.505,27.494,357.774,27.293z
		 M367.077,28.214c-0.158-0.057-0.318-0.113-0.476-0.17c-0.174,0.406-0.35,0.813-0.524,1.219c0.208,0.084,0.416,0.169,0.624,0.253
		C366.826,29.082,366.952,28.648,367.077,28.214z M358.147,28.222c-0.142-0.054-0.284-0.109-0.426-0.163
		c-0.177,0.387-0.353,0.775-0.53,1.162c0.226,0.094,0.451,0.187,0.677,0.281C357.962,29.076,358.054,28.648,358.147,28.222z
		 M393.346,27.28c-1.498-1.208-2.988-0.418-4.554-0.29c0-0.788,0-1.534,0-2.278c0-0.701,0-1.401,0-2.102
		c0-1.738,0.831-3.014,2.474-3.607c0.338-0.122,0.83,0.023,1.199,0.174c0.831,0.338,1.63,0.755,2.542,1.187
		c-0.091,0.239-0.215,0.611-0.37,0.97c-0.702,1.622-0.997,1.742-2.632,1.102c-1.242-0.486-1.882-0.181-2.272,1.203
		c0.45-0.037,0.864-0.13,1.264-0.09c0.71,0.071,1.45,0.121,2.11,0.364c1.013,0.373,1.551,1.091,1.486,2.297
		c-0.096,1.773-0.018,3.555-0.026,5.333c-0.006,1.183-1.381,2.21-2.514,1.895c-1.817-0.505-2.654-1.902-3.202-3.544
		c-0.217-0.649,0.318-0.728,0.746-0.892c1.072-0.412,2.138-0.838,3.198-1.279C392.976,27.646,393.116,27.468,393.346,27.28z
		 M393.776,28.261c-0.138-0.062-0.275-0.125-0.413-0.187c-0.203,0.368-0.406,0.737-0.609,1.105c0.218,0.113,0.437,0.226,0.655,0.338
		C393.533,29.098,393.654,28.68,393.776,28.261z M277.468,26.996c0-1.944-0.084-3.829,0.054-5.696
		c0.038-0.518,0.681-1.054,1.147-1.467c1.369-1.214,1.527-1.18,3.1-0.302c0.572,0.319,1.226,0.491,1.896,0.75
		c-0.085,0.262-0.166,0.57-0.284,0.862c-0.712,1.763-1.033,1.902-2.827,1.24c-1.158-0.427-1.806-0.082-2.18,1.258
		c0.448-0.038,0.865-0.133,1.269-0.093c0.71,0.07,1.45,0.122,2.111,0.364c1.014,0.372,1.549,1.091,1.482,2.296
		c-0.097,1.773-0.018,3.555-0.027,5.334c-0.006,1.182-1.382,2.212-2.514,1.894c-1.812-0.509-2.667-1.895-3.192-3.55
		c-0.222-0.7,0.383-0.727,0.83-0.902c1.095-0.427,2.176-0.89,3.255-1.356c0.129-0.055,0.21-0.219,0.352-0.374
		C280.529,26.068,279.046,26.848,277.468,26.996z M282.418,28.248c-0.14-0.062-0.28-0.123-0.42-0.185
		c-0.196,0.378-0.393,0.756-0.589,1.134c0.223,0.106,0.446,0.211,0.67,0.317C282.192,29.092,282.305,28.669,282.418,28.248z
		 M417.571,13.485c0.296,0,0.593,0.015,0.887-0.002c1.29-0.078,1.989-0.894,1.742-2.15c-0.065-0.328-0.41-0.749-0.713-0.842
		c-0.31-0.095-0.75,0.114-1.083,0.288c-0.118,0.062-0.149,0.424-0.106,0.624c0.054,0.25,0.227,0.474,0.349,0.709
		c-0.302,0.063-0.604,0.175-0.906,0.175c-0.314,0-0.628-0.153-0.943-0.161c-0.874-0.022-1.837-0.236-2.602,0.054
		c-1.178,0.446-1.173,1.651-1.15,2.767c0.019,0.96,0.482,1.668,1.325,1.913c0.88,0.256,1.843,0.321,2.768,0.307
		c1.149-0.016,1.922-1.09,1.612-2.19c-0.09-0.317-0.491-0.712-0.798-0.76c-0.397-0.061-0.881,0.126-1.243,0.346
		c-0.114,0.069,0.063,0.583,0.068,0.895c0.004,0.242-0.053,0.485-0.082,0.727c-0.318-0.058-0.863-0.038-0.916-0.19
		c-0.202-0.578-0.383-1.227-0.31-1.818c0.078-0.644,0.75-0.662,1.297-0.682c0.269-0.01,0.538-0.002,0.807-0.002
		C417.571,13.489,417.571,13.487,417.571,13.485z"/>
	<path fill="#630000" d="M206.338,57.332c0-1.402-0.322-2.855,0.094-4.051c0.381-1.093,1.41-2.128,2.414-2.805
		c3.211-2.168,8.862-0.351,10.291,2.969c0.343,0.798,0.3,1.398-0.385,1.918c-0.556,0.424-1.126,0.831-1.698,1.234
		c-2.122,1.49-0.994,3.331,0.537,4.099c1.248,0.626,2.082,0.399,3.015-0.649c0.174-0.195,0.35-0.388,0.632-0.698
		c0.264,0.32,0.457,0.614,0.707,0.848c1.092,1.018,3.152,0.595,3.787-0.765c0.501-1.071-0.147-2.028-1.539-2.06
		c-0.951-0.022-1.907,0.202-2.954,0.326c-0.018-0.15-0.064-0.371-0.065-0.593c-0.007-1.321-0.047-2.644,0.022-3.961
		c0.023-0.438,0.227-0.969,0.533-1.27c1.514-1.498,3.407-2.415,5.502-2.338c2.752,0.102,5.452,0.658,7.432,2.946
		c0.488-0.646,0.919-1.322,1.455-1.902c1.035-1.12,2.025-1.353,3.414-0.716c0.92,0.422,1.792,0.979,2.61,1.578
		c0.625,0.457,0.926,1.143,0.918,1.971c-0.024,2.83-0.03,5.661,0.002,8.491c0.01,0.982-0.452,1.642-1.211,2.134
		c-0.798,0.517-1.558,0.168-2.27-0.23c-1.088-0.609-1.717-1.625-2.178-2.729c-0.382-0.913-0.185-1.322,0.737-1.706
		c0.694-0.289,1.419-0.502,2.128-0.754c0.934-0.331,1.739-0.838,1.869-1.907c0.123-1.024-0.455-1.774-1.283-2.259
		c-0.852-0.5-1.751-0.941-2.675-1.29c-1.162-0.439-2.242-0.061-3.175,0.666c-0.218,0.17-0.318,0.603-0.322,0.917
		c-0.026,2.345,0.014,4.69-0.036,7.035c-0.011,0.532-0.169,1.157-0.482,1.57c-0.952,1.253-1.814,1.25-3.291,0.27
		c-0.973-0.646-1.568-1.654-1.982-2.782c-0.301-0.82,0.078-1.173,0.704-1.427c0.695-0.283,1.419-0.494,2.124-0.754
		c0.326-0.121,0.656-0.253,0.95-0.435c1.262-0.782,1.436-2.065,0.274-2.975c-2.021-1.583-4.272-2.774-6.92-2.701
		c-0.982,0.027-1.966,0.46-2.916,0.802c-0.361,0.13-0.626,0.526-0.934,0.801c0.031,0.074,0.062,0.147,0.093,0.22
		c0.377-0.042,0.752-0.094,1.13-0.126c2.239-0.191,3.718,1.003,3.798,3.251c0.043,1.218-0.022,2.503-0.37,3.658
		c-0.529,1.749-1.897,2.818-3.694,3.114c-0.996,0.164-1.888-0.402-2.586-1.104c-0.461-0.464-0.822-0.514-1.277-0.062
		c-0.114,0.113-0.26,0.192-0.388,0.29c-1.675,1.289-3.02,1.088-4.538-0.269c-1.109-0.991-1.644-2.294-1.741-3.706
		c-0.077-1.118,0.73-1.93,1.526-2.634c0.602-0.532,1.262-0.997,1.939-1.524c-0.749-1.742-2.242-2.43-3.926-2.702
		c-1.724-0.278-3.296,0.151-4.571,1.577c0.534,0.036,0.988,0.052,1.439,0.1c0.954,0.102,1.647,0.617,1.889,1.527
		c0.288,1.084,0.386,2.206-0.531,3.102c-0.5,0.488-1.071,0.906-1.546,1.416c-0.172,0.184-0.156,0.543-0.226,0.822
		c0.262-0.109,0.626-0.145,0.769-0.342c0.39-0.539,0.847-0.73,1.465-0.518c0.621,0.213,0.717,0.741,0.746,1.303
		c0.088,1.702-0.822,2.745-2.54,2.749c-1.617,0.004-2.717-0.807-2.738-2.578c-0.018-1.491,0.7-2.429,1.974-3.042
		c0.311-0.15,0.628-0.289,0.933-0.428C208.87,56.996,208.62,56.915,206.338,57.332z M242.262,58.955
		c-0.109-0.038-0.218-0.075-0.326-0.113c-0.37,0.287-0.918,0.483-0.678,1.126c0.054,0.143,0.386,0.182,0.591,0.268
		C241.986,59.809,242.124,59.382,242.262,58.955z M233.838,58.963c-0.169-0.063-0.338-0.126-0.507-0.19
		c-0.17,0.394-0.353,0.783-0.482,1.19c-0.01,0.03,0.37,0.183,0.568,0.279C233.557,59.816,233.698,59.39,233.838,58.963z
		 M389.175,54.351c0.47-0.044,0.938-0.109,1.409-0.127c1.762-0.069,2.83,0.525,3.29,2.225c0.522,1.926,0.502,3.898-0.634,5.685
		c-0.73,1.15-1.794,1.889-3.116,2.118c-1.049,0.182-1.954-0.359-2.669-1.078c-0.499-0.502-0.839-0.468-1.347-0.055
		c-1.024,0.833-2.129,1.546-3.522,0.906c-1.505-0.691-2.392-1.898-2.906-3.472c-0.534-1.634,0.192-2.755,1.307-3.754
		c0.616-0.552,1.298-1.03,1.975-1.561c-0.841-1.786-2.374-2.481-4.14-2.708c-1.67-0.215-3.165,0.233-4.363,1.609
		c0.532,0.03,0.97,0.039,1.406,0.085c0.986,0.102,1.694,0.633,1.934,1.58c0.275,1.089,0.353,2.207-0.582,3.09
		c-0.489,0.462-1.035,0.866-1.492,1.356c-0.178,0.191-0.183,0.545-0.266,0.825c0.28-0.117,0.662-0.157,0.821-0.366
		c0.386-0.506,0.829-0.666,1.409-0.48s0.722,0.658,0.764,1.205c0.135,1.746-0.758,2.83-2.507,2.853
		c-1.626,0.02-2.762-0.789-2.763-2.631c-0.001-1.497,0.746-2.411,2.022-3.009c0.29-0.136,0.582-0.267,0.862-0.396
		c-0.235-1.16-0.303-1.182-2.825-0.957c0-1.37-0.315-2.841,0.095-4.068c0.358-1.068,1.394-2.071,2.377-2.738
		c3.213-2.182,8.916-0.378,10.334,3.006c0.303,0.724,0.309,1.299-0.326,1.792c-0.574,0.445-1.17,0.86-1.75,1.295
		c-0.666,0.499-1.356,1.122-1.202,1.969c0.178,0.984,0.795,1.811,1.823,2.203c1.301,0.496,1.99,0.328,2.934-0.738
		c0.158-0.178,0.318-0.354,0.654-0.729c0.229,0.325,0.388,0.646,0.631,0.881c1.079,1.04,3.128,0.654,3.798-0.697
		c0.532-1.073-0.088-2.046-1.481-2.093c-0.974-0.033-1.955,0.196-3.002,0.315c-0.017-0.13-0.063-0.33-0.065-0.532
		c-0.008-0.89,0.121-1.8-0.029-2.664c-0.359-2.08,0.825-3.117,2.415-3.978c2.596-1.406,5.222-1.11,7.866-0.191
		c0.379,0.132,0.743,0.306,1.109,0.474c1.472,0.672,2.294,1.638,2.178,3.44c-0.16,2.496-0.014,5.01-0.062,7.516
		c-0.01,0.534-0.157,1.163-0.47,1.574c-0.968,1.271-1.81,1.274-3.289,0.302c-1.074-0.706-1.736-1.822-2.088-3.082
		c-0.188-0.674,0.306-0.934,0.769-1.129c0.716-0.302,1.481-0.487,2.195-0.79c0.486-0.206,0.986-0.461,1.37-0.814
		c0.806-0.741,0.815-1.646,0.006-2.39c-1.561-1.437-3.463-2.236-5.493-2.756c-1.622-0.416-3.151-0.103-4.587,0.686
		c-0.345,0.19-0.599,0.543-0.896,0.822C389.098,54.235,389.137,54.292,389.175,54.351z M400.713,58.945
		c-0.106-0.034-0.212-0.067-0.318-0.1c-0.401,0.278-0.89,0.529-0.638,1.152c0.056,0.138,0.388,0.163,0.594,0.24
		C400.47,59.806,400.591,59.376,400.713,58.945z M316.638,51.085c-0.186,0.407-0.36,0.918-0.634,1.366
		c-0.59,0.961-1.385,1.159-2.686,0.733c-0.484-0.158-0.983-0.29-1.442-0.506c-0.596-0.281-1.083-0.154-1.582,0.253
		c0.813,1.183,1.926,1.052,3.17,0.996c2.411-0.11,4.743,0.228,6.273,2.487c0.411,0.607,0.673,1.151,0.067,1.791
		c-0.255,0.27-0.406,0.635-0.637,0.932c-0.491,0.63-0.286,1.138,0.326,1.454c0.514,0.266,1.092,0.469,1.663,0.55
		c1.463,0.209,2.9,0.048,4.236-0.63c0.748-0.38,1.226-1.324,1.085-2.002c-0.122-0.586-0.911-1.173-1.778-1.149
		c-1.066,0.03-2.127,0.193-3.256,0.305c-0.024-0.203-0.068-0.407-0.07-0.61c-0.008-0.917,0.104-1.849-0.026-2.746
		c-0.258-1.766,0.59-2.734,2.053-3.498c1.363-0.712,2.782-1.304,4.286-1.283c2.358,0.032,4.638,0.566,6.603,2.008
		c0.678,0.498,0.977,1.142,0.965,2.01c-0.038,2.749-0.01,5.498-0.016,8.248c-0.003,1.194-0.625,2.11-1.658,2.4
		c-0.854,0.24-1.682-0.061-2.211-0.646c-0.739-0.818-1.3-1.806-1.887-2.751c-0.443-0.714,0.046-1.122,0.628-1.369
		c0.715-0.304,1.48-0.489,2.196-0.792c0.487-0.206,0.99-0.456,1.374-0.808c0.842-0.772,0.834-1.662-0.007-2.447
		c-1.265-1.181-2.818-1.854-4.436-2.401c-1.486-0.502-2.976-0.68-4.508-0.218c-0.91,0.274-1.696,0.712-2.402,1.573
		c0.862-0.046,1.554-0.082,2.244-0.118c1.938-0.102,2.925,1.502,3.147,2.761c0.794,4.487-2.372,6.822-5.368,7.183
		c-2.011,0.242-3.85-0.015-5.533-1.151c-1.005-0.678-1.05-1.104-0.285-2.012c0.226-0.268,0.465-0.525,0.693-0.79
		c0.808-0.944,0.798-1.087-0.127-1.952c-1.569-1.467-4.682-1.908-6.594-0.934c-1.036,0.528-1.411,1.486-1.11,2.839
		c0.193,0.866,0.898,1.386,2.042,1.311c0.638-0.042,1.278-0.282,1.879-0.527c0.138-0.056,0.119-0.497,0.172-0.761
		c-0.225,0.063-0.488,0.073-0.667,0.2c-0.681,0.482-1.55,0.604-2.122,0.228c-0.647-0.426-0.644-1.093-0.547-1.739
		c0.155-1.034,1.085-1.259,2.242-1.223c1.214,0.038,1.86,0.761,1.907,1.981c0.033,0.853,0.008,1.736-0.177,2.563
		c-0.294,1.314-1.286,2.006-2.574,2.079c-1.284,0.073-2.261-0.61-2.912-1.707c-1.338-2.253-0.801-5.742,1.136-7.504
		c0.136-0.124,0.272-0.248,0.571-0.521c-0.799-0.437-1.502-0.82-2.249-1.229c0.677-1.734,2.047-2.882,3.79-3.589
		c0.386-0.157,0.95-0.014,1.389,0.128C314.362,50.204,315.425,50.634,316.638,51.085z M334.41,58.933
		c-0.106-0.038-0.212-0.076-0.318-0.114c-0.375,0.29-0.938,0.484-0.683,1.141c0.058,0.147,0.384,0.19,0.586,0.282
		C334.134,59.804,334.272,59.368,334.41,58.933z M264.998,53.99c0.911,0,1.769-0.039,2.621,0.009
		c1.335,0.075,2.232,0.831,2.605,2.068c0.378,1.253,0.11,2.405-0.989,3.257c-0.252,0.196-0.506,0.39-0.75,0.578
		c0.323,0.792,1.453,1.409,2.257,1.056c0.79-0.346,1.462-0.957,2.286-1.519c0.706,0.967,1.542,1.923,2.978,0.923
		c1.08-0.751,1.481-1.787,1.144-3.026c-0.558,0.318-1.094,0.715-1.694,0.947c-0.902,0.35-2.253-0.111-2.762-0.838
		c-0.736-1.053-0.153-2.528,1.225-2.802c0.796-0.158,1.693-0.153,2.478,0.045c1.522,0.385,2.229,1.433,2.27,3.035
		c0.046,1.782-0.274,3.464-1.313,4.97c-1.149,1.666-2.784,2.082-4.446,0.9c-0.982-0.698-1.618-0.838-2.726-0.064
		c-2.179,1.522-4.957,0.248-5.843-2.535c-0.442-1.387-0.742-1.555,1.075-1.62c0.87-0.031,1.764-0.248,2.578-0.559
		c0.381-0.146,0.831-0.709,0.84-1.093c0.015-0.639-0.652-0.717-1.169-0.662c-1.166,0.124-2.325,0.31-3.593,0.486
		c-0.016-0.153-0.062-0.404-0.064-0.655c-0.009-0.998,0.071-2.002-0.025-2.99c-0.096-0.986,0.321-1.631,1.032-2.206
		c1.478-1.195,3.134-2.058,5.034-2.144c0.895-0.041,1.826,0.339,2.714,0.618c0.792,0.249,1.557,0.598,2.314,0.945
		c0.646,0.296,1.25,0.247,1.858-0.078c0.261-0.14,0.55-0.238,0.788-0.409c1.775-1.282,3.634-1.294,5.534-0.346
		c1.102,0.55,2.202,1.118,3.233,1.786c0.306,0.198,0.518,0.762,0.524,1.163c0.043,2.991,0.034,5.983,0.019,8.975
		c-0.006,1.398-1.26,2.332-2.58,1.938c-1.761-0.526-2.59-1.91-3.142-3.515c-0.194-0.562,0.127-0.952,0.626-1.148
		c0.823-0.324,1.677-0.571,2.497-0.902c0.817-0.33,1.56-0.768,1.712-1.762c0.162-1.055-0.401-1.738-1.188-2.301
		c-0.241-0.172-0.479-0.374-0.751-0.47c-1.718-0.614-3.426-1.266-5.176-1.774c-1.141-0.331-2.259,0.126-3.243,0.674
		c-1.519,0.845-3.014,0.777-4.593,0.256c-1.041-0.343-2.114-0.597-3.186-0.834C266.993,52.142,265.415,53.007,264.998,53.99z
		 M286.241,58.902c-0.129-0.05-0.258-0.1-0.387-0.15c-0.203,0.391-0.406,0.782-0.61,1.174c0.224,0.102,0.449,0.204,0.673,0.306
		C286.025,59.788,286.133,59.345,286.241,58.902z M339.142,53.991c0.914,0,1.77-0.038,2.621,0.009
		c1.337,0.074,2.234,0.834,2.606,2.069c0.376,1.25,0.112,2.406-0.991,3.256c-0.253,0.195-0.506,0.39-0.778,0.601
		c0.182,0.718,0.779,0.962,1.335,0.995c0.576,0.035,1.222-0.097,1.739-0.353c0.508-0.252,0.893-0.752,1.42-1.222
		c0.768,1.01,1.561,2.006,2.987,1.062c1.112-0.735,1.52-1.725,1.233-3.094c-0.554,0.322-1.086,0.725-1.682,0.957
		c-0.976,0.379-1.882,0.048-2.604-0.626c-1.023-0.954-0.484-2.666,1.006-2.99c0.813-0.178,1.747-0.161,2.55,0.054
		c1.519,0.408,2.174,1.39,2.22,2.984c0.05,1.778-0.25,3.466-1.292,4.975c-1.178,1.707-2.787,2.093-4.508,0.898
		c-0.902-0.626-1.494-0.88-2.584-0.089c-2.219,1.61-5.064,0.303-5.959-2.534c-0.141-0.447-0.218-0.914-0.33-1.399
		c1.074-0.141,2.034-0.226,2.977-0.407c0.514-0.099,1.05-0.285,1.475-0.578c0.244-0.168,0.431-0.659,0.371-0.948
		c-0.047-0.229-0.521-0.54-0.786-0.524c-1.038,0.063-2.07,0.236-3.101,0.384c-0.256,0.037-0.504,0.135-0.918,0.25
		c0-1.234,0.113-2.366-0.029-3.466c-0.175-1.362,0.467-2.166,1.461-2.894c1.4-1.024,2.941-1.753,4.662-1.821
		c0.872-0.034,1.775,0.338,2.639,0.609c0.69,0.216,1.35,0.534,2.005,0.846c0.844,0.402,1.64,0.41,2.457-0.089
		c0.55-0.336,1.15-0.59,1.722-0.893c0.92-0.486,1.888-0.639,2.858-0.249c1.395,0.562,2.778,1.16,4.133,1.813
		c0.806,0.388,1.164,1.05,1.142,2.026c-0.066,2.775-0.022,5.552-0.023,8.329c-0.002,1.91-1.54,2.871-3.235,1.971
		c-1.277-0.678-2.006-1.842-2.464-3.176c-0.195-0.57,0.032-1.023,0.588-1.243c0.798-0.315,1.618-0.574,2.42-0.879
		c0.856-0.325,1.636-0.756,1.805-1.772c0.187-1.126-0.437-1.848-1.306-2.394c-1.801-1.131-3.798-1.766-5.862-2.192
		c-1.17-0.242-2.259,0.173-3.243,0.718c-1.497,0.83-2.968,0.738-4.518,0.237c-1.043-0.338-2.116-0.591-3.187-0.831
		C341.154,52.146,339.577,52.992,339.142,53.991z M360.399,58.929c-0.14-0.059-0.28-0.118-0.421-0.178
		c-0.198,0.384-0.398,0.768-0.596,1.152c0.219,0.111,0.438,0.222,0.658,0.334C360.159,59.802,360.279,59.366,360.399,58.929z
		 M185.254,55.021c-1.98,1.778-2.531,5.286-1.172,7.559c0.655,1.097,1.634,1.773,2.918,1.693c1.286-0.081,2.27-0.777,2.564-2.09
		c0.18-0.802,0.196-1.656,0.175-2.484c-0.031-1.24-0.618-1.843-1.846-2.059c-1.047-0.185-2.152,0.35-2.297,1.168
		c-0.119,0.673-0.148,1.397,0.55,1.803c0.73,0.426,1.442,0.241,2.114-0.231c0.178-0.125,0.442-0.128,0.666-0.187
		c-0.057,0.264-0.042,0.705-0.182,0.762c-0.602,0.243-1.242,0.482-1.881,0.522c-1.144,0.072-1.916-0.44-2.015-1.322
		c-0.154-1.37-0.192-2.161,1.101-2.829c1.936-1,5.102-0.515,6.648,0.995c0.85,0.83,0.858,0.944,0.108,1.838
		c-0.208,0.248-0.429,0.484-0.639,0.73c-0.902,1.052-0.854,1.452,0.334,2.221c1.68,1.087,3.506,1.319,5.478,1.038
		c3.682-0.526,5.821-3.271,5.291-6.931c-0.254-1.753-1.59-2.961-3.355-2.986c-0.662-0.01-1.325,0.07-1.996,0.108
		c0.161-0.984,0.539-1.396,1.393-1.332c0.63,0.048,1.242,0.312,1.873,0.408c0.313,0.047,0.745,0.046,0.96-0.131
		c0.71-0.586,0.955-1.435,1.126-2.21c-0.951-0.432-1.81-0.794-2.642-1.209c-0.618-0.308-1.166-0.344-1.717,0.128
		c-0.326,0.28-0.682,0.525-1.033,0.775c-0.718,0.513-1.034,1.191-0.982,2.083c0.046,0.806,0.01,1.616,0.01,2.425
		c0,0.796,0,1.593,0,2.482c0.592-0.119,1.034-0.278,1.478-0.282c0.846-0.01,1.742-0.095,2.526,0.148
		c1.35,0.418,1.513,1.674,0.429,2.609c-0.259,0.223-0.581,0.453-0.903,0.508c-1.156,0.198-2.322,0.38-3.491,0.447
		c-0.51,0.03-1.082-0.146-1.547-0.382c-0.92-0.468-1.334-0.797-0.539-1.913c1.162-1.632,1.133-1.903-0.306-3.303
		c-0.433-0.422-0.97-0.775-1.521-1.028c-1.474-0.678-3.066-0.848-4.634-0.57c-1.152,0.204-1.853-0.291-2.559-1.139
		c0.487-0.147,0.99-0.26,1.459-0.181c0.547,0.091,1.063,0.364,1.6,0.534c1.275,0.404,2.036,0.215,2.622-0.719
		c0.291-0.464,0.471-0.998,0.654-1.395c-1.176-0.436-2.241-0.857-3.326-1.218c-0.418-0.139-0.946-0.315-1.311-0.178
		c-1.819,0.684-3.207,1.871-3.909,3.62c0.754,0.407,1.442,0.778,2.281,1.23C185.491,54.814,185.37,54.916,185.254,55.021z
		 M153.576,59.78c0,0.908,0.008,1.706-0.002,2.503c-0.014,1.178-1.398,2.198-2.536,1.872c-1.842-0.529-2.705-1.946-3.171-3.646
		c-0.083-0.303,0.177-0.837,0.446-1.075c0.854-0.758,1.922-1.026,3.051-1.054c0.288-0.007,0.576-0.001,0.9-0.001
		c-0.331-0.849-0.819-1.118-1.98-1.029c-0.792,0.061-1.575,0.231-2.466,0.369c0-1.476-0.011-2.894,0.013-4.313
		c0.003-0.192,0.147-0.41,0.282-0.568c1.421-1.682,3.171-2.787,5.385-3.126c1.639-0.25,3.249-0.247,4.84,0.268
		c1.372,0.444,2.521,1.213,3.397,2.358c0.864,1.13,1.001,2.372,0.354,3.638c-0.622,1.219-1.63,1.95-3.038,1.901
		c-0.79-0.028-1.614-0.115-2.352-0.375c-0.822-0.289-1.055-1.166-0.811-2.296c0.159-0.738,0.729-1.166,1.601-1.186
		c0.809-0.019,1.564,0.031,1.901,0.986c0.144,0.407,1.07,0.594,1.42,0.306c0.464-0.38,0.342-0.932-0.023-1.192
		c-0.706-0.504-1.475-1.051-2.297-1.238c-2.948-0.672-5.869-0.65-8.602,0.905c-0.125,0.071-0.226,0.184-0.303,0.248
		c0.842,0.188,1.69,0.288,2.47,0.574c1.041,0.381,1.712,1.102,1.525,2.342c-0.133,0.881,0.03,1.461,1.089,1.753
		c0.602,0.166,1.158,0.875,1.514,1.471c0.454,0.76,1.069,1.048,1.856,1.042c1.706-0.013,3.091-0.626,3.874-2.254
		c0.091-0.19,0.217-0.365,0.33-0.545c0.009-0.014,0.045-0.01,0.069-0.014c0.307,2.458-1.069,5.631-4,5.894
		c-1.768,0.158-3.208-1.088-3.465-2.915C154.75,60.696,154.572,60.059,153.576,59.78z M152.846,60.296
		c-0.237-0.225-0.416-0.501-0.526-0.476c-0.221,0.051-0.403,0.266-0.602,0.413c0.193,0.183,0.364,0.408,0.592,0.523
		C152.378,60.791,152.602,60.512,152.846,60.296z M247.222,53.939c0.608-1.058,1.468-1.266,2.774-0.886
		c0.626,0.182,1.523,0.355,1.962,0.05c0.66-0.46,1.025-1.342,1.487-2.006c-1.171-0.476-2.118-0.918-3.104-1.237
		c-0.474-0.153-1.093-0.237-1.525-0.058c-0.682,0.282-1.348,0.727-1.855,1.261c-0.385,0.406-0.677,1.043-0.719,1.6
		c-0.102,1.34-0.037,2.693-0.03,4.04c0.002,0.31,0.038,0.62,0.062,1.008c0.434-0.071,0.771-0.149,1.112-0.178
		c0.988-0.085,1.977-0.18,2.967-0.202c0.235-0.006,0.615,0.212,0.678,0.408c0.066,0.206-0.115,0.553-0.286,0.755
		c-0.161,0.19-0.436,0.34-0.685,0.39c-0.995,0.202-1.994,0.398-3.002,0.519c-0.862,0.103-0.946,0.167-0.693,0.964
		c0.439,1.386,1.322,2.402,2.633,3.001c2.258,1.031,4.626,1.178,7.013,0.611c2.958-0.702,5.192-3.351,4.85-6.339
		c-0.202-1.775-1.551-3.572-3.568-3.422c-0.627,0.046-1.255,0.086-1.889,0.128c0.061-1.37,1.317-1.608,2.362-1.197
		c1.637,0.643,2.022,0.489,2.694-1.127c0.142-0.342,0.245-0.699,0.35-1.004c-0.678-0.256-1.375-0.379-1.904-0.746
		c-1.216-0.844-2.273-0.764-3.302,0.259c-0.171,0.17-0.355,0.329-0.538,0.488c-0.518,0.454-0.747,1.008-0.726,1.711
		c0.036,1.185,0.01,2.371,0.01,3.557c0,0.492,0,0.983,0,1.398c1.157-0.122,2.164-0.3,3.174-0.314
		c0.951-0.014,1.846,0.613,1.934,1.17c0.141,0.886-0.462,1.79-1.454,2.179c-0.05,0.02-0.103,0.03-0.154,0.047
		c-2.006,0.654-4.022,0.569-6.024,0.015c-0.431-0.119-0.81-0.428-1.332-0.714c0.423-0.336,0.69-0.55,0.959-0.761
		c1.098-0.858,1.339-2.014,0.962-3.263c-0.374-1.238-1.383-1.727-2.615-1.768c-0.879-0.029-1.759-0.006-2.671-0.006
		C247.155,54.184,247.16,54.045,247.222,53.939z M302.014,49.874c-0.313-0.131-0.683-0.302-0.986-0.244
		c-1.375,0.266-2.726,1.987-2.726,3.381c0,0.997,0,1.994,0,2.99c0,0.582,0,1.165,0,1.674c1.154-0.116,2.189-0.297,3.226-0.301
		c0.973-0.004,1.822,0.634,1.887,1.214c0.1,0.887-0.467,1.731-1.426,2.119c-0.074,0.03-0.154,0.047-0.231,0.072
		c-2.008,0.654-4.022,0.545-6.022-0.009c-0.419-0.116-0.782-0.438-1.285-0.732c0.389-0.29,0.604-0.443,0.81-0.606
		c1.132-0.898,1.534-2.091,1.139-3.365c-0.334-1.077-1.242-1.707-2.696-1.79c-0.863-0.05-1.732-0.009-2.601-0.009
		c0.405-1.355,1.626-1.666,2.827-1.227c0.604,0.22,1.522,0.375,1.959,0.072c0.665-0.46,1.035-1.344,1.499-2.005
		c-1.186-0.49-2.154-0.946-3.164-1.282c-0.447-0.149-1.061-0.228-1.454-0.038c-1.672,0.806-2.997,1.845-2.651,4.076
		c0.19,1.228,0.034,2.51,0.034,3.786c0.246,0,0.377,0.01,0.505-0.002c1.201-0.112,2.4-0.252,3.602-0.322
		c0.238-0.014,0.662,0.204,0.695,0.374c0.048,0.252-0.097,0.686-0.302,0.812c-0.467,0.288-1.006,0.514-1.543,0.622
		c-0.939,0.188-1.9,0.267-2.856,0.393c-0.024,0.092-0.062,0.168-0.06,0.244c0.002,0.134,0.01,0.272,0.047,0.399
		c0.398,1.352,1.18,2.427,2.444,3.063c2.33,1.172,4.815,1.369,7.297,0.724c3.315-0.862,5.073-3.295,4.802-6.425
		c-0.153-1.762-1.555-3.438-3.489-3.315c-0.636,0.041-1.272,0.083-1.912,0.126c0.088-1.225,1.026-1.709,2.293-1.218
		c1.714,0.665,2.106,0.497,2.782-1.21c0.118-0.296,0.2-0.606,0.274-0.834C303.762,50.648,302.895,50.244,302.014,49.874z
		 M167.834,53.696c2.675-1.461,5.524-1.477,8.386-0.838c0.866,0.194,1.664,0.806,2.407,1.345c0.172,0.124-0.007,0.733-0.025,1.118
		c-0.466-0.084-1.234-0.031-1.345-0.275c-0.422-0.938-1.135-1.056-1.984-1.03c-0.866,0.027-1.437,0.457-1.594,1.196
		c-0.241,1.131-0.006,2.002,0.821,2.292c0.738,0.259,1.562,0.345,2.353,0.371c1.406,0.046,2.411-0.686,3.033-1.906
		c0.647-1.268,0.566-2.566-0.379-3.617c-0.705-0.782-1.564-1.506-2.493-1.99c-1.654-0.861-3.458-0.95-5.322-0.706
		c-1.775,0.233-3.292,0.911-4.666,2.014c-1.028,0.826-1.64,1.78-1.457,3.19c0.118,0.911,0.022,1.85,0.022,2.853
		c0.489-0.074,0.802-0.138,1.117-0.166c0.987-0.088,1.975-0.196,2.965-0.219c0.258-0.006,0.685,0.226,0.738,0.427
		c0.06,0.226-0.178,0.57-0.358,0.807c-0.118,0.155-0.354,0.267-0.554,0.305c-1.077,0.202-2.154,0.433-3.241,0.535
		c-0.641,0.06-0.724,0.31-0.563,0.822c0.439,1.404,1.279,2.485,2.623,3.11c2.278,1.06,4.676,1.228,7.082,0.636
		c2.573-0.633,4.214-2.277,4.736-4.931c0.06-0.306,0.042-0.629,0.059-0.944c-1.327,1.568-2.723,2.802-4.797,3.01
		c-1.895,0.19-3.737,0.179-5.553-1.086c1.677-1.002,2.583-2.27,1.937-4.001c-0.772-2.067-2.683-1.846-4.661-1.858
		C167.49,53.92,167.655,53.795,167.834,53.696z M370.519,51.08c-0.098,0.256-0.225,0.63-0.383,0.992
		c-0.707,1.616-0.982,1.725-2.639,1.075c-1.214-0.476-1.852-0.166-2.277,1.212c0.45-0.035,0.865-0.132,1.263-0.085
		c0.76,0.09,1.55,0.16,2.255,0.426c0.916,0.346,1.405,1.029,1.354,2.13c-0.084,1.801-0.018,3.609-0.024,5.414
		c-0.005,1.234-1.378,2.247-2.567,1.9c-1.772-0.517-2.594-1.896-3.138-3.508c-0.214-0.635,0.284-0.744,0.726-0.91
		c1.05-0.393,2.093-0.806,3.13-1.234c0.208-0.086,0.374-0.274,0.63-0.469c-1.458-1.253-2.974-0.428-4.544-0.319
		c0-0.845,0-1.643,0-2.442c0-0.593,0.087-1.201-0.016-1.775c-0.356-1.978,0.948-2.899,2.354-3.698
		c0.325-0.184,0.925-0.038,1.337,0.118C368.818,50.225,369.616,50.654,370.519,51.08z M369.248,58.945
		c-0.144-0.052-0.288-0.104-0.432-0.156c-0.175,0.385-0.35,0.77-0.526,1.154c0.226,0.094,0.451,0.188,0.678,0.282
		C369.062,59.799,369.155,59.372,369.248,58.945z M216.642,67.856c0.303-0.27,0.738-0.514,1.13-0.543
		c1.737-0.129,3.479-0.211,5.22-0.23c0.538-0.006,1.08,0.243,1.668,0.387c-0.124,0.209-0.14,0.275-0.179,0.294
		c-0.218,0.104-0.44,0.196-0.662,0.293c-1.542,0.672-1.65,1.57-0.31,2.583c0.086,0.065,0.174,0.127,0.266,0.183
		c0.874,0.539,1.804,0.283,2.032-0.717c0.223-0.978,0.156-2.018,0.269-3.026c0.104-0.926-0.378-1.422-1.16-1.693
		c-1.784-0.616-3.63-0.725-5.478-0.454c-0.837,0.123-1.693,0.366-2.448,0.741c-1.454,0.721-2.021,2.224-1.517,3.647
		c0.421,1.188,1.624,1.88,3.108,1.789c1.377-0.085,1.92-0.833,1.568-2.158c-0.177-0.664-0.885-1.17-1.646-1.19
		c-0.757-0.019-1.315,0.22-1.402,1.127C216.349,68.63,216.191,68.258,216.642,67.856z M155.274,41.576
		c3.051,0.005,5.383,2.35,6.09,4.92c0.153,0.554,0.017,0.914-0.622,0.904c-0.643-0.01-1.294,0.01-1.926-0.088
		c-2.195-0.341-4.372-0.382-6.567,0.056c-1.766,0.352-2.909-1.063-2.293-2.757c0.521-1.431,1.611-2.264,3.022-2.663
		C153.72,41.74,154.508,41.696,155.274,41.576z M152.718,45.583c2.34,0.117,4.558,0.228,6.962,0.348
		c-0.372-0.379-0.625-0.716-0.95-0.955c-1.401-1.033-3.014-1.045-4.617-0.772C153.423,44.321,152.797,44.772,152.718,45.583z
		 M269.048,67.504c-0.665,0-1.334-0.047-1.994,0.014c-0.578,0.054-1.202,0.253-1.084,1.008c0.089,0.567,0.26,1.198,0.607,1.63
		c0.506,0.63,1.244,1.083,2.12,0.912c0.811-0.158,1.29-0.732,1.462-1.542c0.08-0.378,0.133-0.761,0.198-1.142
		c0.077-0.023,0.154-0.047,0.231-0.07c0.151,0.299,0.377,0.583,0.441,0.9c0.354,1.744,2.038,2.542,3.626,1.688
		c1.298-0.698,1.923-1.849,2.07-3.259c0.042-0.405-0.166-0.836-0.259-1.255c-0.083,0.02-0.167,0.04-0.25,0.06
		c-0.1,0.355-0.162,0.727-0.31,1.062c-0.146,0.33-0.311,0.708-0.582,0.918c-0.932,0.723-2.495,0.586-3.398-0.197
		c-0.319-0.277-0.687-0.607-1.074-0.673c-0.574-0.098-0.606-0.401-0.596-0.838c0.017-0.698-0.192-1.389-0.898-1.551
		c-1.075-0.248-2.195-0.304-3.358-0.449c0,0.864,0,1.518,0,2.166c1.094-0.049,2.19-0.501,3.114,0.255
		C269.092,67.264,269.07,67.384,269.048,67.504z M253.987,46.868c1.042-1.242,1.433-2.718,1.233-4.29
		c-0.064-0.502-0.484-1.134-0.922-1.373c-0.616-0.335-1.382-0.202-1.942,0.345c-0.549,0.535-0.726,1.21-0.693,1.971
		c0.976-0.108,1.493,0.33,1.542,1.399c0.035,0.788-0.083,1.583-0.151,2.665C253.475,47.267,253.783,47.112,253.987,46.868z
		 M297.154,44.956c0.034,0.785-0.083,1.576-0.143,2.523c0.322-0.186,0.607-0.272,0.779-0.462c1.238-1.369,1.635-3.006,1.333-4.789
		c-0.121-0.714-0.636-1.146-1.441-1.153c-1.33-0.01-2.149,0.94-2.02,2.453C296.588,43.407,297.108,43.868,297.154,44.956z
		 M407.754,53.476c-0.044-0.827-0.558-1.307-1.303-1.398c-0.99-0.12-1.612,0.164-1.879,0.859c-0.266,0.694-0.071,1.623,0.433,2.003
		c1.002,0.754,3.181,0.553,3.918-0.592C407.998,54.609,407.793,54.208,407.754,53.476z M407.762,62.332
		c-0.047-0.696-0.432-1.205-1.17-1.344c-0.99-0.188-1.698,0.094-1.995,0.782c-0.286,0.659-0.131,1.642,0.361,2.018
		c0.943,0.722,2.964,0.731,4.034-0.638C407.887,63.571,407.809,63.031,407.762,62.332z"/>
</g>
</svg>
